<svg class="main-svg" xmlns="http://www.w3.org/2000/svg" xmlns:xlink="http://www.w3.org/1999/xlink" width="760" height="480" style="" viewBox="0 0 760 480"><rect x="0" y="0" width="760" height="480" style="fill: rgb(251, 249, 245); fill-opacity: 1;"/><defs id="defs-98a0de"><g class="clips"><clipPath id="clip98a0dexyplot" class="plotclip"><rect width="650" height="306"/></clipPath><clipPath class="axesclip" id="clip98a0dex"><rect x="70" y="0" width="650" height="480"/></clipPath><clipPath class="axesclip" id="clip98a0dey"><rect x="0" y="90" width="760" height="306"/></clipPath><clipPath class="axesclip" id="clip98a0dexy"><rect x="70" y="90" width="650" height="306"/></clipPath></g><g class="gradients"/><g class="patterns"/></defs><g class="bglayer"/><g class="layer-below"><g class="imagelayer"/><g class="shapelayer"/></g><g class="cartesianlayer"><g class="subplot xy"><g class="layer-subplot"><g class="shapelayer"/><g class="imagelayer"/></g><g class="minor-gridlayer"><g class="x"/><g class="y"/></g><g class="gridlayer"><g class="x"/><g class="y"><path class="ygrid crisp" transform="translate(0,387.42)" d="M70,0h650" style="stroke: rgb(226, 222, 215); stroke-opacity: 1; stroke-width: 1px;"/><path class="ygrid crisp" transform="translate(0,339.44)" d="M70,0h650" style="stroke: rgb(226, 222, 215); stroke-opacity: 1; stroke-width: 1px;"/><path class="ygrid crisp" transform="translate(0,291.46000000000004)" d="M70,0h650" style="stroke: rgb(226, 222, 215); stroke-opacity: 1; stroke-width: 1px;"/><path class="ygrid crisp" transform="translate(0,243.48)" d="M70,0h650" style="stroke: rgb(226, 222, 215); stroke-opacity: 1; stroke-width: 1px;"/><path class="ygrid crisp" transform="translate(0,195.5)" d="M70,0h650" style="stroke: rgb(226, 222, 215); stroke-opacity: 1; stroke-width: 1px;"/><path class="ygrid crisp" transform="translate(0,147.52)" d="M70,0h650" style="stroke: rgb(226, 222, 215); stroke-opacity: 1; stroke-width: 1px;"/><path class="ygrid crisp" transform="translate(0,99.53999999999999)" d="M70,0h650" style="stroke: rgb(226, 222, 215); stroke-opacity: 1; stroke-width: 1px;"/></g></g><g class="zerolinelayer"/><g class="layer-between"><g class="shapelayer"/><g class="imagelayer"/></g><path class="xlines-below"/><path class="ylines-below"/><g class="overlines-below"/><g class="xaxislayer-below"/><g class="yaxislayer-below"/><g class="overaxes-below"/><g class="overplot"><g class="xy" transform="translate(70,90)" clip-path="url(#clip98a0dexyplot)"><g class="scatterlayer mlayer"><g class="trace scatter trace962d69" style="stroke-miterlimit: 2; opacity: 1;"><g class="fills"/><g class="errorbars"/><g class="lines"><path class="js-line" d="M0,15.3L28.26,25.38L56.52,34.49L84.78,41.69L113.04,42.17L141.3,43.61L169.57,42.65L197.83,43.61L226.09,53.2L254.35,74.31L282.61,70.48L310.87,65.68L339.13,64.72L395.65,58.96L423.91,53.2L480.43,59.44L508.7,55.6L536.96,58.96L565.22,68.08L593.48,62.8L621.74,62.32L650,62.8" style="vector-effect: none; fill: none; stroke: rgb(156, 43, 46); stroke-opacity: 1; stroke-width: 2.6px; opacity: 1;"/></g><g class="points"/><g class="text"/></g><g class="trace scatter trace8d9e2c" style="stroke-miterlimit: 2; opacity: 1;"><g class="fills"/><g class="errorbars"/><g class="lines"><path class="js-line" d="M0,218.25L56.52,226.41L84.78,228.81L113.04,228.81L141.3,234.08L169.57,224.49L197.83,223.53L226.09,226.89L254.35,246.08L282.61,237.44L310.87,236.48L339.13,246.56L367.39,251.36L395.65,249.44L423.91,248.48L452.17,251.36L480.43,255.2L508.7,258.55L536.96,262.87L565.22,290.7L593.48,277.27L621.74,278.23L650,280.62" style="vector-effect: none; fill: none; stroke: rgb(194, 143, 44); stroke-opacity: 1; stroke-width: 2px; opacity: 1;"/></g><g class="points"/><g class="text"/></g><g class="trace scatter trace958cf0" style="stroke-miterlimit: 2; opacity: 1;"><g class="fills"/><g class="errorbars"/><g class="lines"><path class="js-line" d="M0,181.31L28.26,190.42L56.52,206.26L84.78,204.82L113.04,193.3L141.3,192.34L169.57,200.02L197.83,189.46L226.09,186.11L254.35,191.86L282.61,188.02L310.87,185.15L339.13,188.02L367.39,195.22L395.65,199.54L423.91,199.54L452.17,198.1L480.43,205.3L508.7,201.46L536.96,199.54L565.22,253.76L593.48,216.33L621.74,205.3L650,207.7" style="vector-effect: none; fill: none; stroke: rgb(46, 94, 140); stroke-opacity: 1; stroke-width: 2px; opacity: 1;"/></g><g class="points"/><g class="text"/></g><g class="trace scatter traceddf535" style="stroke-miterlimit: 2; opacity: 1;"><g class="fills"/><g class="errorbars"/><g class="lines"><path class="js-line" d="M0,44.09L28.26,48.89L56.52,57.04L84.78,65.2L113.04,65.2L141.3,67.12L169.57,66.64L197.83,64.24L226.09,69.52L254.35,84.87L282.61,84.87L310.87,86.79L339.13,105.02L367.39,111.74L395.65,112.22L423.91,111.26L452.17,109.34L508.7,110.3L536.96,115.1L565.22,194.74L593.48,128.05L621.74,109.82L650,105.02" style="vector-effect: none; fill: none; stroke: rgb(78, 122, 90); stroke-opacity: 1; stroke-width: 2px; opacity: 1;"/></g><g class="points"/><g class="text"/></g><g class="trace scatter traced31b80" style="stroke-miterlimit: 2; opacity: 1;"><g class="fills"/><g class="errorbars"/><g class="lines"><path class="js-line" d="M0,80.07L28.26,75.27L56.52,75.75L84.78,81.03L113.04,88.71L141.3,96.86L169.57,102.14L197.83,107.9L226.09,103.1L254.35,100.22L282.61,104.06L310.87,101.18L339.13,105.98L367.39,111.26L395.65,111.26L423.91,110.3L452.17,106.94L480.43,110.78L508.7,108.38L536.96,116.06L565.22,171.23L593.48,137.65L621.74,128.05L650,135.25" style="vector-effect: none; fill: none; stroke: rgb(184, 99, 58); stroke-opacity: 1; stroke-width: 2px; opacity: 1;"/></g><g class="points"/><g class="text"/></g></g></g></g><g class="zerolinelayer-above"/><path class="xlines-above crisp" d="" style="fill: none; stroke-width: 1px; stroke: rgb(0, 0, 0); stroke-opacity: 0;"/><path class="ylines-above crisp" d="M0,0" style="fill: none;"/><g class="overlines-above"/><g class="xaxislayer-above"><path class="xtick ticks crisp" d="M0,397v5" transform="translate(70,0)" style="stroke: rgb(226, 222, 215); stroke-opacity: 1; stroke-width: 1px;"/><path class="xtick ticks crisp" d="M0,397v5" transform="translate(211.3,0)" style="stroke: rgb(226, 222, 215); stroke-opacity: 1; stroke-width: 1px;"/><path class="xtick ticks crisp" d="M0,397v5" transform="translate(352.61,0)" style="stroke: rgb(226, 222, 215); stroke-opacity: 1; stroke-width: 1px;"/><path class="xtick ticks crisp" d="M0,397v5" transform="translate(493.91,0)" style="stroke: rgb(226, 222, 215); stroke-opacity: 1; stroke-width: 1px;"/><path class="xtick ticks crisp" d="M0,397v5" transform="translate(635.22,0)" style="stroke: rgb(226, 222, 215); stroke-opacity: 1; stroke-width: 1px;"/><g class="xtick"><text text-anchor="middle" x="0" y="416.4" transform="translate(70,0)" style="font-family: 'Helvetica Neue', Helvetica, Arial, sans-serif; font-size: 12px; fill: rgb(89, 89, 89); fill-opacity: 1; white-space: pre;">2000</text></g><g class="xtick"><text text-anchor="middle" x="0" y="416.4" style="font-family: 'Helvetica Neue', Helvetica, Arial, sans-serif; font-size: 12px; fill: rgb(89, 89, 89); fill-opacity: 1; white-space: pre;" transform="translate(211.3,0)">2005</text></g><g class="xtick"><text text-anchor="middle" x="0" y="416.4" style="font-family: 'Helvetica Neue', Helvetica, Arial, sans-serif; font-size: 12px; fill: rgb(89, 89, 89); fill-opacity: 1; white-space: pre;" transform="translate(352.61,0)">2010</text></g><g class="xtick"><text text-anchor="middle" x="0" y="416.4" style="font-family: 'Helvetica Neue', Helvetica, Arial, sans-serif; font-size: 12px; fill: rgb(89, 89, 89); fill-opacity: 1; white-space: pre;" transform="translate(493.91,0)">2015</text></g><g class="xtick"><text text-anchor="middle" x="0" y="416.4" style="font-family: 'Helvetica Neue', Helvetica, Arial, sans-serif; font-size: 12px; fill: rgb(89, 89, 89); fill-opacity: 1; white-space: pre;" transform="translate(635.22,0)">2020</text></g></g><g class="yaxislayer-above"><g class="ytick"><text text-anchor="end" x="69" y="4.199999999999999" transform="translate(0,387.42)" style="font-family: 'Helvetica Neue', Helvetica, Arial, sans-serif; font-size: 12px; fill: rgb(89, 89, 89); fill-opacity: 1; white-space: pre;">1300</text></g><g class="ytick"><text text-anchor="end" x="69" y="4.199999999999999" style="font-family: 'Helvetica Neue', Helvetica, Arial, sans-serif; font-size: 12px; fill: rgb(89, 89, 89); fill-opacity: 1; white-space: pre;" transform="translate(0,339.44)">1400</text></g><g class="ytick"><text text-anchor="end" x="69" y="4.199999999999999" style="font-family: 'Helvetica Neue', Helvetica, Arial, sans-serif; font-size: 12px; fill: rgb(89, 89, 89); fill-opacity: 1; white-space: pre;" transform="translate(0,291.46000000000004)">1500</text></g><g class="ytick"><text text-anchor="end" x="69" y="4.199999999999999" style="font-family: 'Helvetica Neue', Helvetica, Arial, sans-serif; font-size: 12px; fill: rgb(89, 89, 89); fill-opacity: 1; white-space: pre;" transform="translate(0,243.48)">1600</text></g><g class="ytick"><text text-anchor="end" x="69" y="4.199999999999999" style="font-family: 'Helvetica Neue', Helvetica, Arial, sans-serif; font-size: 12px; fill: rgb(89, 89, 89); fill-opacity: 1; white-space: pre;" transform="translate(0,195.5)">1700</text></g><g class="ytick"><text text-anchor="end" x="69" y="4.199999999999999" style="font-family: 'Helvetica Neue', Helvetica, Arial, sans-serif; font-size: 12px; fill: rgb(89, 89, 89); fill-opacity: 1; white-space: pre;" transform="translate(0,147.52)">1800</text></g><g class="ytick"><text text-anchor="end" x="69" y="4.199999999999999" style="font-family: 'Helvetica Neue', Helvetica, Arial, sans-serif; font-size: 12px; fill: rgb(89, 89, 89); fill-opacity: 1; white-space: pre;" transform="translate(0,99.53999999999999)">1900</text></g></g><g class="overaxes-above"/></g></g><g class="polarlayer"/><g class="smithlayer"/><g class="ternarylayer"/><g class="geolayer"/><g class="funnelarealayer"/><g class="pielayer"/><g class="iciclelayer"/><g class="treemaplayer"/><g class="sunburstlayer"/><g class="glimages"/><defs id="topdefs-98a0de"><g class="clips"/><clipPath id="legend98a0de"><rect width="447" height="29" x="0" y="0"/></clipPath></defs><g class="layer-above"><g class="imagelayer"/><g class="shapelayer"/></g><g class="infolayer"><g class="legend" pointer-events="all" transform="translate(70,438.84000000000003)"><rect class="bg" shape-rendering="crispEdges" style="stroke: rgb(68, 68, 68); stroke-opacity: 1; fill: rgb(0, 0, 0); fill-opacity: 0; stroke-width: 0px;" width="447" height="29" x="0" y="0"/><g class="scrollbox" transform="" clip-path="url(#legend98a0de)"><g class="groups"><g class="traces" transform="translate(0,14.5)" style="opacity: 1;"><text class="legendtext" text-anchor="start" x="40" y="4.680000000000001" style="font-family: 'Helvetica Neue', Helvetica, Arial, sans-serif; font-size: 12px; fill: rgb(26, 26, 26); fill-opacity: 1; white-space: pre;">États-Unis</text><g class="layers" style="opacity: 1;"><g class="legendfill"/><g class="legendlines"><path class="js-line" d="M5,0h30" style="fill: none; stroke: rgb(156, 43, 46); stroke-opacity: 1; stroke-width: 2.6px;"/></g><g class="legendsymbols"><g class="legendpoints"/></g></g><rect class="legendtoggle" x="0" y="-9.5" width="98.515625" height="19" style="fill: rgb(0, 0, 0); fill-opacity: 0;"/></g><g class="traces" transform="translate(101.015625,14.5)" style="opacity: 1;"><text class="legendtext" text-anchor="start" x="40" y="4.680000000000001" style="font-family: 'Helvetica Neue', Helvetica, Arial, sans-serif; font-size: 12px; fill: rgb(26, 26, 26); fill-opacity: 1; white-space: pre;">Allemagne</text><g class="layers" style="opacity: 1;"><g class="legendfill"/><g class="legendlines"><path class="js-line" d="M5,0h30" style="fill: none; stroke: rgb(194, 143, 44); stroke-opacity: 1; stroke-width: 2px;"/></g><g class="legendsymbols"><g class="legendpoints"/></g></g><rect class="legendtoggle" x="0" y="-9.5" width="98.806640625" height="19" style="fill: rgb(0, 0, 0); fill-opacity: 0;"/></g><g class="traces" transform="translate(202.322265625,14.5)" style="opacity: 1;"><text class="legendtext" text-anchor="start" x="40" y="4.680000000000001" style="font-family: 'Helvetica Neue', Helvetica, Arial, sans-serif; font-size: 12px; fill: rgb(26, 26, 26); fill-opacity: 1; white-space: pre;">France</text><g class="layers" style="opacity: 1;"><g class="legendfill"/><g class="legendlines"><path class="js-line" d="M5,0h30" style="fill: none; stroke: rgb(46, 94, 140); stroke-opacity: 1; stroke-width: 2px;"/></g><g class="legendsymbols"><g class="legendpoints"/></g></g><rect class="legendtoggle" x="0" y="-9.5" width="79.390625" height="19" style="fill: rgb(0, 0, 0); fill-opacity: 0;"/></g><g class="traces" transform="translate(284.212890625,14.5)" style="opacity: 1;"><text class="legendtext" text-anchor="start" x="40" y="4.680000000000001" style="font-family: 'Helvetica Neue', Helvetica, Arial, sans-serif; font-size: 12px; fill: rgb(26, 26, 26); fill-opacity: 1; white-space: pre;">Italie</text><g class="layers" style="opacity: 1;"><g class="legendfill"/><g class="legendlines"><path class="js-line" d="M5,0h30" style="fill: none; stroke: rgb(78, 122, 90); stroke-opacity: 1; stroke-width: 2px;"/></g><g class="legendsymbols"><g class="legendpoints"/></g></g><rect class="legendtoggle" x="0" y="-9.5" width="67.609375" height="19" style="fill: rgb(0, 0, 0); fill-opacity: 0;"/></g><g class="traces" transform="translate(354.322265625,14.5)" style="opacity: 1;"><text class="legendtext" text-anchor="start" x="40" y="4.680000000000001" style="font-family: 'Helvetica Neue', Helvetica, Arial, sans-serif; font-size: 12px; fill: rgb(26, 26, 26); fill-opacity: 1; white-space: pre;">Espagne</text><g class="layers" style="opacity: 1;"><g class="legendfill"/><g class="legendlines"><path class="js-line" d="M5,0h30" style="fill: none; stroke: rgb(184, 99, 58); stroke-opacity: 1; stroke-width: 2px;"/></g><g class="legendsymbols"><g class="legendpoints"/></g></g><rect class="legendtoggle" x="0" y="-9.5" width="89.40625" height="19" style="fill: rgb(0, 0, 0); fill-opacity: 0;"/></g></g></g><rect class="scrollbar" rx="20" ry="3" width="0" height="0" style="fill: rgb(128, 139, 164); fill-opacity: 1;" x="0" y="0"/></g><g class="g-gtitle"><text class="gtitle" x="9.120000000000001" y="19.200000000000045" text-anchor="start" dy="0.7em" style="opacity: 1; font-family: 'Helvetica Neue', Helvetica, Arial, sans-serif; font-size: 19px; fill: rgb(26, 26, 26); fill-opacity: 1; white-space: pre;"><tspan class="line" dy="0em" x="9.120000000000001" y="19.200000000000045"><tspan style="font-weight:bold">Les Européens travaillent moins d'heures</tspan></tspan><tspan class="line" dy="1.3em" x="9.120000000000001" y="19.200000000000045"><tspan style="font-size:13px; fill:#595959">Durée annuelle moyenne du travail par personne en emploi, 2000-2023</tspan></tspan></text></g><g class="g-xtitle"/><g class="g-ytitle"><text class="ytitle" transform="rotate(-90,34,243)" x="34" y="243" text-anchor="middle" style="opacity: 1; font-family: 'Helvetica Neue', Helvetica, Arial, sans-serif; font-size: 13px; fill: rgb(89, 89, 89); fill-opacity: 1; white-space: pre;">Heures travaillées par an et par travailleur</text></g><g class="annotation" data-index="0" style="opacity: 1;"><g class="annotation-text-g" transform="rotate(0,750.5,152.8)"><g class="cursor-pointer" transform="translate(725,145)"><rect class="bg" x="0.5" y="0.5" width="50" height="15" style="stroke-width: 1px; stroke: rgb(0, 0, 0); stroke-opacity: 0; fill: rgb(0, 0, 0); fill-opacity: 0;"/><text class="annotation-text" text-anchor="middle" x="25.3359375" y="12" style="font-family: 'Helvetica Neue', Helvetica, Arial, sans-serif; font-size: 10px; fill: rgb(156, 43, 46); fill-opacity: 1; white-space: pre;">États-Unis</text></g></g></g><g class="annotation" data-index="1" style="opacity: 1;"><g class="annotation-text-g" transform="rotate(0,750.5,370.62)"><g class="cursor-pointer" transform="translate(725,363)"><rect class="bg" x="0.5" y="0.5" width="50" height="15" style="stroke-width: 1px; stroke: rgb(0, 0, 0); stroke-opacity: 0; fill: rgb(0, 0, 0); fill-opacity: 0;"/><text class="annotation-text" text-anchor="middle" x="25.4970703125" y="12" style="font-family: 'Helvetica Neue', Helvetica, Arial, sans-serif; font-size: 10px; fill: rgb(194, 143, 44); fill-opacity: 1; white-space: pre;">Allemagne</text></g></g></g><g class="annotation" data-index="2" style="opacity: 1;"><g class="annotation-text-g" transform="rotate(0,392.5,461.96)"><g class="cursor-pointer" transform="translate(70,445)"><rect class="bg" x="0.5" y="0.5" width="644" height="33" style="stroke-width: 1px; stroke: rgb(0, 0, 0); stroke-opacity: 0; fill: rgb(0, 0, 0); fill-opacity: 0;"/><text class="annotation-text" text-anchor="start" x="2" y="12" style="font-family: 'Helvetica Neue', Helvetica, Arial, sans-serif; font-size: 14px; fill: rgb(89, 89, 89); fill-opacity: 1; white-space: pre;"><tspan class="line" dy="0em" x="2" y="12"><tspan style="font-size:11px">Source : OCDE (Average annual hours actually worked), via Our World in Data. Extraction : 06/2026.</tspan></tspan><tspan class="line" dy="1.3em" x="2" y="12"><tspan style="font-size:11px">Lecture : un Allemand travaille ~450 heures de moins par an qu'un Américain — soit un arbitrage assumé en faveur du temps libre.</tspan></tspan></text></g></g></g></g></svg>