<svg class="main-svg" xmlns="http://www.w3.org/2000/svg" xmlns:xlink="http://www.w3.org/1999/xlink" width="760" height="520" style="" viewBox="0 0 760 520"><rect x="0" y="0" width="760" height="520" style="fill: rgb(251, 249, 245); fill-opacity: 1;"/><defs id="defs-3db3c5"><g class="clips"><clipPath id="clip3db3c5xyplot" class="plotclip"><rect width="650" height="350"/></clipPath><clipPath class="axesclip" id="clip3db3c5x"><rect x="70" y="0" width="650" height="520"/></clipPath><clipPath class="axesclip" id="clip3db3c5y"><rect x="0" y="90" width="760" height="350"/></clipPath><clipPath class="axesclip" id="clip3db3c5xy"><rect x="70" y="90" width="650" height="350"/></clipPath></g><g class="gradients"/><g class="patterns"/></defs><g class="bglayer"/><g class="layer-below"><g class="imagelayer"/><g class="shapelayer"/></g><g class="cartesianlayer"><g class="subplot xy"><g class="layer-subplot"><g class="shapelayer"/><g class="imagelayer"/></g><g class="minor-gridlayer"><g class="x"/><g class="y"/></g><g class="gridlayer"><g class="x"/><g class="y"><path class="ygrid crisp" transform="translate(0,370)" d="M70,0h650" style="stroke: rgb(226, 222, 215); stroke-opacity: 1; stroke-width: 1px;"/><path class="ygrid crisp" transform="translate(0,300)" d="M70,0h650" style="stroke: rgb(226, 222, 215); stroke-opacity: 1; stroke-width: 1px;"/><path class="ygrid crisp" transform="translate(0,230)" d="M70,0h650" style="stroke: rgb(226, 222, 215); stroke-opacity: 1; stroke-width: 1px;"/><path class="ygrid crisp" transform="translate(0,160)" d="M70,0h650" style="stroke: rgb(226, 222, 215); stroke-opacity: 1; stroke-width: 1px;"/></g></g><g class="zerolinelayer"/><g class="layer-between"><g class="shapelayer"/><g class="imagelayer"/></g><path class="xlines-below"/><path class="ylines-below"/><g class="overlines-below"/><g class="xaxislayer-below"/><g class="yaxislayer-below"/><g class="overaxes-below"/><g class="overplot"><g class="xy" transform="translate(70,90)" clip-path="url(#clip3db3c5xyplot)"><g class="scatterlayer mlayer"><g class="trace scatter trace9cae34" style="stroke-miterlimit: 2;"><g class="fills"><g><path class="js-fill" d="M650,350L0,350L0,250.67L19.12,251.58L38.24,248.78L57.35,259.04L76.47,260.4L95.59,257.04L114.71,257.67L133.82,265.06L152.94,262.08L172.06,265.27L191.18,274.75L210.29,273.04L229.41,268.98L248.53,261.21L267.65,259.39L286.76,262.64L305.88,263.94L325,261.56L344.12,260.93L363.24,264.81L382.35,273.28L401.47,275.24L420.59,282.14L439.71,280.95L458.82,281.08L477.94,286.79L497.06,286.27L516.18,286.4L535.29,285.29L554.41,287.46L573.53,286.83L592.65,287.6L611.76,291.73L630.88,288.82L650,288.51" style="fill: rgb(46, 94, 140); fill-opacity: 1; stroke-width: 0;"/></g><g><path class="js-fill" d="M0,159.64L19.12,161.49L38.24,159.46L57.35,166.64L76.47,169.19L95.59,171.47L114.71,169.3L133.82,170.87L152.94,162.12L172.06,162.44L191.18,168.91L210.29,163.1L229.41,159.67L248.53,159.04L267.65,162.71L286.76,167.37L305.88,170.8L325,175L344.12,180.53L363.24,181.72L382.35,194.46L401.47,201.78L420.59,207.24L439.71,205.42L458.82,204.37L497.06,201.11L516.18,203.11L554.41,202.9L573.53,201.04L592.65,204.44L611.76,204.09L630.88,199.33L650,197.82L650,288.51L630.88,288.82L611.76,291.73L592.65,287.6L573.53,286.83L554.41,287.46L535.29,285.29L516.18,286.4L497.06,286.27L477.94,286.79L458.82,281.08L439.71,280.95L420.59,282.14L401.47,275.24L382.35,273.28L363.24,264.81L344.12,260.93L325,261.56L305.88,263.94L286.76,262.64L267.65,259.39L248.53,261.21L229.41,268.98L210.29,273.04L191.18,274.75L172.06,265.27L152.94,262.08L133.82,265.06L114.71,257.67L95.59,257.04L76.47,260.4L57.35,259.04L38.24,248.78L19.12,251.58L0,250.67Z" style="fill: rgb(156, 43, 46); fill-opacity: 1; stroke-width: 0;"/></g></g><g class="errorbars"/><g class="lines"><path class="js-line" d="M0,250.67L19.12,251.58L38.24,248.78L57.35,259.04L76.47,260.4L95.59,257.04L114.71,257.67L133.82,265.06L152.94,262.08L172.06,265.27L191.18,274.75L210.29,273.04L229.41,268.98L248.53,261.21L267.65,259.39L286.76,262.64L305.88,263.94L325,261.56L344.12,260.93L363.24,264.81L382.35,273.28L401.47,275.24L420.59,282.14L439.71,280.95L458.82,281.08L477.94,286.79L497.06,286.27L516.18,286.4L535.29,285.29L554.41,287.46L573.53,286.83L592.65,287.6L611.76,291.73L630.88,288.82L650,288.51" style="vector-effect: none; fill: none; stroke: rgb(46, 94, 140); stroke-opacity: 1; stroke-width: 0.5px; opacity: 1;"/></g><g class="points"/><g class="text"/></g><g class="trace scatter traceb16d1b" style="stroke-miterlimit: 2;"><g class="fills"><g><path class="js-fill" d="M0,154.11L19.12,155.86L38.24,153.58L57.35,160.62L76.47,162.09L95.59,163.21L114.71,159.78L133.82,160.23L152.94,150.67L172.06,150.64L191.18,156.28L210.29,149.03L229.41,144.76L248.53,144.03L267.65,147L286.76,150.43L305.88,151.97L344.12,155.12L363.24,151.94L382.35,162.02L401.47,165.66L420.59,167.27L439.71,161.7L458.82,157.71L477.94,150.29L497.06,148.92L516.18,149.49L535.29,145.85L554.41,145.29L573.53,139.93L592.65,139.51L611.76,141.4L630.88,139.41L650,138.7L650,197.82L630.88,199.33L611.76,204.09L592.65,204.44L573.53,201.04L554.41,202.9L516.18,203.11L497.06,201.11L458.82,204.37L439.71,205.42L420.59,207.24L401.47,201.78L382.35,194.46L363.24,181.72L344.12,180.53L325,175L305.88,170.8L286.76,167.37L267.65,162.71L248.53,159.04L229.41,159.67L210.29,163.1L191.18,168.91L172.06,162.44L152.94,162.12L133.82,170.87L114.71,169.3L95.59,171.47L76.47,169.19L57.35,166.64L38.24,159.46L19.12,161.49L0,159.64Z" style="fill: rgb(217, 164, 65); fill-opacity: 1; stroke-width: 0;"/></g></g><g class="errorbars"/><g class="lines"><path class="js-line" d="M0,159.64L19.12,161.49L38.24,159.46L57.35,166.64L76.47,169.19L95.59,171.47L114.71,169.3L133.82,170.87L152.94,162.12L172.06,162.44L191.18,168.91L210.29,163.1L229.41,159.67L248.53,159.04L267.65,162.71L286.76,167.37L305.88,170.8L325,175L344.12,180.53L363.24,181.72L382.35,194.46L401.47,201.78L420.59,207.24L439.71,205.42L458.82,204.37L497.06,201.11L516.18,203.11L554.41,202.9L573.53,201.04L592.65,204.44L611.76,204.09L630.88,199.33L650,197.82" style="vector-effect: none; fill: none; stroke: rgb(156, 43, 46); stroke-opacity: 1; stroke-width: 0.5px; opacity: 1;"/></g><g class="points"/><g class="text"/></g><g class="trace scatter tracef18ab1" style="stroke-miterlimit: 2;"><g class="fills"><g><path class="js-fill" d="M0,0L458.82,0.04L477.94,-0.04L650,-0.04L650,138.7L630.88,139.41L611.76,141.4L592.65,139.51L573.53,139.93L554.41,145.29L535.29,145.85L516.18,149.49L497.06,148.92L477.94,150.29L458.82,157.71L439.71,161.7L420.59,167.27L401.47,165.66L382.35,162.02L363.24,151.94L344.12,155.12L305.88,151.97L286.76,150.43L267.65,147L248.53,144.03L229.41,144.76L210.29,149.03L191.18,156.28L172.06,150.64L152.94,150.67L133.82,160.23L114.71,159.78L95.59,163.21L76.47,162.09L57.35,160.62L38.24,153.58L19.12,155.86L0,154.11Z" style="fill: rgb(201, 195, 184); fill-opacity: 1; stroke-width: 0;"/></g></g><g class="errorbars"/><g class="lines"><path class="js-line" d="M0,154.11L19.12,155.86L38.24,153.58L57.35,160.62L76.47,162.09L95.59,163.21L114.71,159.78L133.82,160.23L152.94,150.67L172.06,150.64L191.18,156.28L210.29,149.03L229.41,144.76L248.53,144.03L267.65,147L286.76,150.43L305.88,151.97L344.12,155.12L363.24,151.94L382.35,162.02L401.47,165.66L420.59,167.27L439.71,161.7L458.82,157.71L477.94,150.29L497.06,148.92L516.18,149.49L535.29,145.85L554.41,145.29L573.53,139.93L592.65,139.51L611.76,141.4L630.88,139.41L650,138.7" style="vector-effect: none; fill: none; stroke: rgb(217, 164, 65); stroke-opacity: 1; stroke-width: 0.5px; opacity: 1;"/></g><g class="points"/><g class="text"/></g><g class="trace scatter trace9cac49" style="stroke-miterlimit: 2;"><g class="fills"/><g class="errorbars"/><g class="lines"><path class="js-line" d="M0,0L458.82,0.04L477.94,-0.04L650,-0.04" style="vector-effect: none; fill: none; stroke: rgb(201, 195, 184); stroke-opacity: 1; stroke-width: 0.5px; opacity: 1;"/></g><g class="points"/><g class="text"/></g></g></g></g><g class="zerolinelayer-above"/><path class="xlines-above crisp" d="" style="fill: none; stroke-width: 1px; stroke: rgb(0, 0, 0); stroke-opacity: 0;"/><path class="ylines-above crisp" d="M0,0" style="fill: none;"/><g class="overlines-above"/><g class="xaxislayer-above"><path class="xtick ticks crisp" d="M0,441v5" transform="translate(70,0)" style="stroke: rgb(226, 222, 215); stroke-opacity: 1; stroke-width: 1px;"/><path class="xtick ticks crisp" d="M0,441v5" transform="translate(165.59,0)" style="stroke: rgb(226, 222, 215); stroke-opacity: 1; stroke-width: 1px;"/><path class="xtick ticks crisp" d="M0,441v5" transform="translate(261.18,0)" style="stroke: rgb(226, 222, 215); stroke-opacity: 1; stroke-width: 1px;"/><path class="xtick ticks crisp" d="M0,441v5" transform="translate(356.76,0)" style="stroke: rgb(226, 222, 215); stroke-opacity: 1; stroke-width: 1px;"/><path class="xtick ticks crisp" d="M0,441v5" transform="translate(452.35,0)" style="stroke: rgb(226, 222, 215); stroke-opacity: 1; stroke-width: 1px;"/><path class="xtick ticks crisp" d="M0,441v5" transform="translate(547.94,0)" style="stroke: rgb(226, 222, 215); stroke-opacity: 1; stroke-width: 1px;"/><path class="xtick ticks crisp" d="M0,441v5" transform="translate(643.53,0)" style="stroke: rgb(226, 222, 215); stroke-opacity: 1; stroke-width: 1px;"/><g class="xtick"><text text-anchor="middle" x="0" y="460.4" transform="translate(70,0)" style="font-family: 'Helvetica Neue', Helvetica, Arial, sans-serif; font-size: 12px; fill: rgb(89, 89, 89); fill-opacity: 1; white-space: pre;">1990</text></g><g class="xtick"><text text-anchor="middle" x="0" y="460.4" style="font-family: 'Helvetica Neue', Helvetica, Arial, sans-serif; font-size: 12px; fill: rgb(89, 89, 89); fill-opacity: 1; white-space: pre;" transform="translate(165.59,0)">1995</text></g><g class="xtick"><text text-anchor="middle" x="0" y="460.4" style="font-family: 'Helvetica Neue', Helvetica, Arial, sans-serif; font-size: 12px; fill: rgb(89, 89, 89); fill-opacity: 1; white-space: pre;" transform="translate(261.18,0)">2000</text></g><g class="xtick"><text text-anchor="middle" x="0" y="460.4" style="font-family: 'Helvetica Neue', Helvetica, Arial, sans-serif; font-size: 12px; fill: rgb(89, 89, 89); fill-opacity: 1; white-space: pre;" transform="translate(356.76,0)">2005</text></g><g class="xtick"><text text-anchor="middle" x="0" y="460.4" style="font-family: 'Helvetica Neue', Helvetica, Arial, sans-serif; font-size: 12px; fill: rgb(89, 89, 89); fill-opacity: 1; white-space: pre;" transform="translate(452.35,0)">2010</text></g><g class="xtick"><text text-anchor="middle" x="0" y="460.4" style="font-family: 'Helvetica Neue', Helvetica, Arial, sans-serif; font-size: 12px; fill: rgb(89, 89, 89); fill-opacity: 1; white-space: pre;" transform="translate(547.94,0)">2015</text></g><g class="xtick"><text text-anchor="middle" x="0" y="460.4" style="font-family: 'Helvetica Neue', Helvetica, Arial, sans-serif; font-size: 12px; fill: rgb(89, 89, 89); fill-opacity: 1; white-space: pre;" transform="translate(643.53,0)">2020</text></g></g><g class="yaxislayer-above"><g class="ytick"><text text-anchor="end" x="69" y="4.199999999999999" transform="translate(0,440)" style="font-family: 'Helvetica Neue', Helvetica, Arial, sans-serif; font-size: 12px; fill: rgb(89, 89, 89); fill-opacity: 1; white-space: pre;">0 %</text></g><g class="ytick"><text text-anchor="end" x="69" y="4.199999999999999" style="font-family: 'Helvetica Neue', Helvetica, Arial, sans-serif; font-size: 12px; fill: rgb(89, 89, 89); fill-opacity: 1; white-space: pre;" transform="translate(0,370)">20 %</text></g><g class="ytick"><text text-anchor="end" x="69" y="4.199999999999999" style="font-family: 'Helvetica Neue', Helvetica, Arial, sans-serif; font-size: 12px; fill: rgb(89, 89, 89); fill-opacity: 1; white-space: pre;" transform="translate(0,300)">40 %</text></g><g class="ytick"><text text-anchor="end" x="69" y="4.199999999999999" style="font-family: 'Helvetica Neue', Helvetica, Arial, sans-serif; font-size: 12px; fill: rgb(89, 89, 89); fill-opacity: 1; white-space: pre;" transform="translate(0,230)">60 %</text></g><g class="ytick"><text text-anchor="end" x="69" y="4.199999999999999" style="font-family: 'Helvetica Neue', Helvetica, Arial, sans-serif; font-size: 12px; fill: rgb(89, 89, 89); fill-opacity: 1; white-space: pre;" transform="translate(0,160)">80 %</text></g><g class="ytick"><text text-anchor="end" x="69" y="4.199999999999999" style="font-family: 'Helvetica Neue', Helvetica, Arial, sans-serif; font-size: 12px; fill: rgb(89, 89, 89); fill-opacity: 1; white-space: pre;" transform="translate(0,90)">100 %</text></g></g><g class="overaxes-above"/></g></g><g class="polarlayer"/><g class="smithlayer"/><g class="ternarylayer"/><g class="geolayer"/><g class="funnelarealayer"/><g class="pielayer"/><g class="iciclelayer"/><g class="treemaplayer"/><g class="sunburstlayer"/><g class="glimages"/><defs id="topdefs-3db3c5"><g class="clips"/></defs><g class="layer-above"><g class="imagelayer"/><g class="shapelayer"><g class="shape-group" data-index="0" clip-path="url(#clip3db3c5x)"><path data-index="0" fill-rule="evenodd" d="M414.12,440L414.12,90" style="opacity: 1; stroke: rgb(255, 255, 255); stroke-opacity: 0.45; fill: rgb(0, 0, 0); fill-opacity: 0; stroke-dasharray: 3px, 3px; stroke-width: 1px;"/></g></g></g><g class="infolayer"><g class="g-gtitle"><text class="gtitle" x="9.120000000000001" y="20.80000000000001" text-anchor="start" dy="0.7em" style="opacity: 1; font-family: 'Helvetica Neue', Helvetica, Arial, sans-serif; font-size: 19px; fill: rgb(26, 26, 26); fill-opacity: 1; white-space: pre;"><tspan class="line" dy="0em" x="9.120000000000001" y="20.80000000000001"><tspan style="font-weight:bold">Le poids économique relatif de l'Europe recule</tspan></tspan><tspan class="line" dy="1.3em" x="9.120000000000001" y="20.80000000000001"><tspan style="font-size:13px; fill:#595959">Répartition du PIB mondial (en dollars courants), 1990-2024</tspan></tspan></text></g><g class="g-xtitle"/><g class="g-ytitle"><text class="ytitle" transform="rotate(-90,34,265)" x="34" y="265" text-anchor="middle" style="opacity: 1; font-family: 'Helvetica Neue', Helvetica, Arial, sans-serif; font-size: 13px; fill: rgb(89, 89, 89); fill-opacity: 1; white-space: pre;">Part du PIB mondial courant (%)</text></g><g class="annotation" data-index="0" style="opacity: 1;"><g class="annotation-text-g" transform="rotate(0,645.62,409.25)"><g class="cursor-pointer" transform="translate(585,394)"><rect class="bg" x="0.5" y="0.5" width="121" height="30" style="stroke-width: 1px; stroke: rgb(0, 0, 0); stroke-opacity: 0; fill: rgb(0, 0, 0); fill-opacity: 0;"/><text class="annotation-text" text-anchor="middle" x="60.984375" y="13" style="font-family: 'Helvetica Neue', Helvetica, Arial, sans-serif; font-size: 11px; fill: rgb(255, 255, 255); fill-opacity: 1; white-space: pre;"><tspan class="line" dy="0em" x="60.984375" y="13"><tspan style="font-weight:bold">Union européenne (27)</tspan></tspan><tspan class="line" dy="1.3em" x="60.984375" y="13">18 %</tspan></text></g></g></g><g class="annotation" data-index="1" style="opacity: 1;"><g class="annotation-text-g" transform="rotate(0,677.12,333.15999999999997)"><g class="cursor-pointer" transform="translate(648,318)"><rect class="bg" x="0.5" y="0.5" width="58" height="30" style="stroke-width: 1px; stroke: rgb(0, 0, 0); stroke-opacity: 0; fill: rgb(0, 0, 0); fill-opacity: 0;"/><text class="annotation-text" text-anchor="middle" x="29.5" y="13" style="font-family: 'Helvetica Neue', Helvetica, Arial, sans-serif; font-size: 11px; fill: rgb(255, 255, 255); fill-opacity: 1; white-space: pre;"><tspan class="line" dy="0em" x="29.5" y="13"><tspan style="font-weight:bold">États-Unis</tspan></tspan><tspan class="line" dy="1.3em" x="29.5" y="13">26 %</tspan></text></g></g></g><g class="annotation" data-index="2" style="opacity: 1;"><g class="annotation-text-g" transform="rotate(0,689.62,258.26)"><g class="cursor-pointer" transform="translate(673,243)"><rect class="bg" x="0.5" y="0.5" width="33" height="30" style="stroke-width: 1px; stroke: rgb(0, 0, 0); stroke-opacity: 0; fill: rgb(0, 0, 0); fill-opacity: 0;"/><text class="annotation-text" text-anchor="middle" x="17.1796875" y="13" style="font-family: 'Helvetica Neue', Helvetica, Arial, sans-serif; font-size: 11px; fill: rgb(26, 26, 26); fill-opacity: 1; white-space: pre;"><tspan class="line" dy="0em" x="17.1796875" y="13"><tspan style="font-weight:bold">Chine</tspan></tspan><tspan class="line" dy="1.3em" x="17.1796875" y="13">17 %</tspan></text></g></g></g><g class="annotation" data-index="3" style="opacity: 1;"><g class="annotation-text-g" transform="rotate(0,661.62,159.34)"><g class="cursor-pointer" transform="translate(617,144)"><rect class="bg" x="0.5" y="0.5" width="89" height="30" style="stroke-width: 1px; stroke: rgb(0, 0, 0); stroke-opacity: 0; fill: rgb(0, 0, 0); fill-opacity: 0;"/><text class="annotation-text" text-anchor="middle" x="44.984375" y="13" style="font-family: 'Helvetica Neue', Helvetica, Arial, sans-serif; font-size: 11px; fill: rgb(26, 26, 26); fill-opacity: 1; white-space: pre;"><tspan class="line" dy="0em" x="44.984375" y="13"><tspan style="font-weight:bold">Reste du monde</tspan></tspan><tspan class="line" dy="1.3em" x="44.984375" y="13">40 %</tspan></text></g></g></g><g class="annotation" data-index="4" style="opacity: 1;"><g class="annotation-text-g" transform="rotate(0,151.12,390.33)"><g class="cursor-pointer" transform="translate(89,382)"><rect class="bg" x="0.5" y="0.5" width="123" height="15" style="stroke-width: 1px; stroke: rgb(0, 0, 0); stroke-opacity: 0; fill: rgb(0, 0, 0); fill-opacity: 0;"/><text class="annotation-text" text-anchor="middle" x="62.125" y="12" style="font-family: 'Helvetica Neue', Helvetica, Arial, sans-serif; font-size: 11px; fill: rgb(255, 255, 255); fill-opacity: 1; white-space: pre;">UE-27 : 28 % en 1990…</text></g></g></g><g class="annotation" data-index="5" style="opacity: 1;"><g class="annotation-text-g" transform="rotate(0,414.12,82)"><g class="cursor-pointer" transform="translate(401,74)"><rect class="bg" x="0.5" y="0.5" width="25" height="15" style="stroke-width: 1px; stroke: rgb(0, 0, 0); stroke-opacity: 0; fill: rgb(0, 0, 0); fill-opacity: 0;"/><text class="annotation-text" text-anchor="middle" x="13.125" y="12" style="font-family: 'Helvetica Neue', Helvetica, Arial, sans-serif; font-size: 10px; fill: rgb(89, 89, 89); fill-opacity: 1; white-space: pre;">2008</text></g></g></g><g class="annotation" data-index="6" style="opacity: 1;"><g class="annotation-text-g" transform="rotate(0,429,513)"><g class="cursor-pointer" transform="translate(70,496)"><rect class="bg" x="0.5" y="0.5" width="717" height="33" style="stroke-width: 1px; stroke: rgb(0, 0, 0); stroke-opacity: 0; fill: rgb(0, 0, 0); fill-opacity: 0;"/><text class="annotation-text" text-anchor="start" x="2" y="12" style="font-family: 'Helvetica Neue', Helvetica, Arial, sans-serif; font-size: 14px; fill: rgb(89, 89, 89); fill-opacity: 1; white-space: pre;"><tspan class="line" dy="0em" x="2" y="12"><tspan style="font-size:11px">Source : Banque mondiale, World Development Indicators (PIB courant $US). Extraction : 06/2026.</tspan></tspan><tspan class="line" dy="1.3em" x="2" y="12"><tspan style="font-size:11px">Lecture : la part de l'UE-27 dans le PIB mondial est passée d'environ un quart à moins d'un cinquième en trois décennies, dépassée par la Chine.</tspan></tspan></text></g></g></g></g></svg>