<svg class="main-svg" xmlns="http://www.w3.org/2000/svg" xmlns:xlink="http://www.w3.org/1999/xlink" width="760" height="520" style="" viewBox="0 0 760 520"><rect x="0" y="0" width="760" height="520" style="fill: rgb(251, 249, 245); fill-opacity: 1;"/><defs id="defs-de87b3"><g class="clips"><clipPath id="clipde87b3xyplot" class="plotclip"><rect width="600" height="325"/></clipPath><clipPath id="clipde87b3xy2plot" class="plotclip"><rect width="600" height="325"/></clipPath><clipPath class="axesclip" id="clipde87b3x"><rect x="80" y="0" width="600" height="520"/></clipPath><clipPath class="axesclip" id="clipde87b3y"><rect x="0" y="110" width="760" height="325"/></clipPath><clipPath class="axesclip" id="clipde87b3xy"><rect x="80" y="110" width="600" height="325"/></clipPath><clipPath class="axesclip" id="clipde87b3y2"><rect x="0" y="110" width="760" height="325"/></clipPath><clipPath class="axesclip" id="clipde87b3xy2"><rect x="80" y="110" width="600" height="325"/></clipPath></g><g class="gradients"/><g class="patterns"/></defs><g class="bglayer"/><g class="layer-below"><g class="imagelayer"/><g class="shapelayer"/></g><g class="cartesianlayer"><g class="subplot xy"><g class="layer-subplot"><g class="shapelayer"/><g class="imagelayer"/></g><g class="minor-gridlayer"><g class="x"/><g class="y"/><g class="y2"/></g><g class="gridlayer"><g class="x"/><g class="y"><path class="ygrid crisp" transform="translate(0,384.06)" d="M80,0h600" style="stroke: rgb(226, 222, 215); stroke-opacity: 1; stroke-width: 1px;"/><path class="ygrid crisp" transform="translate(0,313.15)" d="M80,0h600" style="stroke: rgb(226, 222, 215); stroke-opacity: 1; stroke-width: 1px;"/><path class="ygrid crisp" transform="translate(0,242.24)" d="M80,0h600" style="stroke: rgb(226, 222, 215); stroke-opacity: 1; stroke-width: 1px;"/><path class="ygrid crisp" transform="translate(0,171.32)" d="M80,0h600" style="stroke: rgb(226, 222, 215); stroke-opacity: 1; stroke-width: 1px;"/></g><g class="y2"/></g><g class="zerolinelayer"/><g class="layer-between"><g class="shapelayer"/><g class="imagelayer"/></g><path class="xlines-below"/><path class="ylines-below"/><g class="overlines-below"><path class="xy2-x"/><path class="xy2-y"/></g><g class="xaxislayer-below"/><g class="yaxislayer-below"/><g class="overaxes-below"><g class="xy2-x"/><g class="xy2-y"/></g><g class="overplot"><g class="xy" transform="translate(80,110)" clip-path="url(#clipde87b3xyplot)"><g class="scatterlayer mlayer"><g class="trace scatter trace0716db" style="stroke-miterlimit: 2; opacity: 1;"><g class="fills"/><g class="errorbars"/><g class="lines"><path class="js-line" d="M10.71,308.75L21.43,305.2L32.14,297.69L42.86,288.91L53.57,291.77L64.29,294.08L75,285.62L85.71,278.42L96.43,269.2L107.14,264.78L117.86,267.46L128.57,264.09L139.29,270.18L150,262.32L160.71,248.15L171.43,240.39L182.14,234.2L192.86,227.8L203.57,219.42L214.29,212.21L225,210.17L235.71,214.14L246.43,208.42L257.14,204.51L267.86,196.72L278.57,192.46L289.29,184.88L310.71,165.04L321.43,153.48L332.14,143.73L342.86,143.86L353.57,141.25L364.29,134.63L385.71,115.26L396.43,108.58L407.14,104.66L417.86,107.82L428.57,120.81L439.29,114.11L450,111.27L460.71,105.73L471.43,100.59L482.14,93.98L492.86,85.63L503.57,81.52L514.29,74.43L525,64.68L535.71,56L546.43,67.03L557.14,42.32L567.86,33.77L589.29,16.25" style="vector-effect: none; fill: none; stroke: rgb(156, 43, 46); stroke-opacity: 1; stroke-width: 3px; opacity: 1;"/></g><g class="points"/><g class="text"/></g></g></g><g class="xy2" transform="translate(80,110)" clip-path="url(#clipde87b3xy2plot)"><g class="scatterlayer mlayer"><g class="trace scatter tracea1d1f4" style="stroke-miterlimit: 2; opacity: 1;"><g class="fills"/><g class="errorbars"/><g class="lines"><path class="js-line" d="M32.14,106.46L42.86,64.57L53.57,61.89L64.29,90.13L75,76.77L85.71,68.25L96.43,82.04L117.86,78.65L139.29,80.31L150,98.22L160.71,70.49L171.43,115.05L182.14,88.04L192.86,82.62L203.57,64.57L214.29,77.86L225,71.86L235.71,95.84L257.14,98.51L267.86,108.33L289.29,92.23L310.71,84.14L332.14,74.1L353.57,89.34L375,92.37L396.43,92.3L417.86,101.83L439.29,122.71L460.71,95.69L482.14,94.47L503.57,105.23L525,97.5L557.14,185.11L567.86,146.25L589.29,156" style="vector-effect: none; fill: none; stroke: rgb(46, 94, 140); stroke-opacity: 1; stroke-width: 2.4px; opacity: 1;"/></g><g class="points"><path class="point" transform="translate(32.14,106.46)" d="M2.5,0A2.5,2.5 0 1,1 0,-2.5A2.5,2.5 0 0,1 2.5,0Z" style="opacity: 1; stroke-width: 0px; fill: rgb(46, 94, 140); fill-opacity: 1;"/><path class="point" transform="translate(42.86,64.57)" d="M2.5,0A2.5,2.5 0 1,1 0,-2.5A2.5,2.5 0 0,1 2.5,0Z" style="opacity: 1; stroke-width: 0px; fill: rgb(46, 94, 140); fill-opacity: 1;"/><path class="point" transform="translate(53.57,61.89)" d="M2.5,0A2.5,2.5 0 1,1 0,-2.5A2.5,2.5 0 0,1 2.5,0Z" style="opacity: 1; stroke-width: 0px; fill: rgb(46, 94, 140); fill-opacity: 1;"/><path class="point" transform="translate(64.29,90.13)" d="M2.5,0A2.5,2.5 0 1,1 0,-2.5A2.5,2.5 0 0,1 2.5,0Z" style="opacity: 1; stroke-width: 0px; fill: rgb(46, 94, 140); fill-opacity: 1;"/><path class="point" transform="translate(75,76.77)" d="M2.5,0A2.5,2.5 0 1,1 0,-2.5A2.5,2.5 0 0,1 2.5,0Z" style="opacity: 1; stroke-width: 0px; fill: rgb(46, 94, 140); fill-opacity: 1;"/><path class="point" transform="translate(85.71,68.25)" d="M2.5,0A2.5,2.5 0 1,1 0,-2.5A2.5,2.5 0 0,1 2.5,0Z" style="opacity: 1; stroke-width: 0px; fill: rgb(46, 94, 140); fill-opacity: 1;"/><path class="point" transform="translate(96.43,82.04)" d="M2.5,0A2.5,2.5 0 1,1 0,-2.5A2.5,2.5 0 0,1 2.5,0Z" style="opacity: 1; stroke-width: 0px; fill: rgb(46, 94, 140); fill-opacity: 1;"/><path class="point" transform="translate(117.86,78.65)" d="M2.5,0A2.5,2.5 0 1,1 0,-2.5A2.5,2.5 0 0,1 2.5,0Z" style="opacity: 1; stroke-width: 0px; fill: rgb(46, 94, 140); fill-opacity: 1;"/><path class="point" transform="translate(139.29,80.31)" d="M2.5,0A2.5,2.5 0 1,1 0,-2.5A2.5,2.5 0 0,1 2.5,0Z" style="opacity: 1; stroke-width: 0px; fill: rgb(46, 94, 140); fill-opacity: 1;"/><path class="point" transform="translate(150,98.22)" d="M2.5,0A2.5,2.5 0 1,1 0,-2.5A2.5,2.5 0 0,1 2.5,0Z" style="opacity: 1; stroke-width: 0px; fill: rgb(46, 94, 140); fill-opacity: 1;"/><path class="point" transform="translate(160.71,70.49)" d="M2.5,0A2.5,2.5 0 1,1 0,-2.5A2.5,2.5 0 0,1 2.5,0Z" style="opacity: 1; stroke-width: 0px; fill: rgb(46, 94, 140); fill-opacity: 1;"/><path class="point" transform="translate(171.43,115.05)" d="M2.5,0A2.5,2.5 0 1,1 0,-2.5A2.5,2.5 0 0,1 2.5,0Z" style="opacity: 1; stroke-width: 0px; fill: rgb(46, 94, 140); fill-opacity: 1;"/><path class="point" transform="translate(182.14,88.04)" d="M2.5,0A2.5,2.5 0 1,1 0,-2.5A2.5,2.5 0 0,1 2.5,0Z" style="opacity: 1; stroke-width: 0px; fill: rgb(46, 94, 140); fill-opacity: 1;"/><path class="point" transform="translate(192.86,82.62)" d="M2.5,0A2.5,2.5 0 1,1 0,-2.5A2.5,2.5 0 0,1 2.5,0Z" style="opacity: 1; stroke-width: 0px; fill: rgb(46, 94, 140); fill-opacity: 1;"/><path class="point" transform="translate(203.57,64.57)" d="M2.5,0A2.5,2.5 0 1,1 0,-2.5A2.5,2.5 0 0,1 2.5,0Z" style="opacity: 1; stroke-width: 0px; fill: rgb(46, 94, 140); fill-opacity: 1;"/><path class="point" transform="translate(214.29,77.86)" d="M2.5,0A2.5,2.5 0 1,1 0,-2.5A2.5,2.5 0 0,1 2.5,0Z" style="opacity: 1; stroke-width: 0px; fill: rgb(46, 94, 140); fill-opacity: 1;"/><path class="point" transform="translate(225,71.86)" d="M2.5,0A2.5,2.5 0 1,1 0,-2.5A2.5,2.5 0 0,1 2.5,0Z" style="opacity: 1; stroke-width: 0px; fill: rgb(46, 94, 140); fill-opacity: 1;"/><path class="point" transform="translate(235.71,95.84)" d="M2.5,0A2.5,2.5 0 1,1 0,-2.5A2.5,2.5 0 0,1 2.5,0Z" style="opacity: 1; stroke-width: 0px; fill: rgb(46, 94, 140); fill-opacity: 1;"/><path class="point" transform="translate(257.14,98.51)" d="M2.5,0A2.5,2.5 0 1,1 0,-2.5A2.5,2.5 0 0,1 2.5,0Z" style="opacity: 1; stroke-width: 0px; fill: rgb(46, 94, 140); fill-opacity: 1;"/><path class="point" transform="translate(267.86,108.33)" d="M2.5,0A2.5,2.5 0 1,1 0,-2.5A2.5,2.5 0 0,1 2.5,0Z" style="opacity: 1; stroke-width: 0px; fill: rgb(46, 94, 140); fill-opacity: 1;"/><path class="point" transform="translate(289.29,92.23)" d="M2.5,0A2.5,2.5 0 1,1 0,-2.5A2.5,2.5 0 0,1 2.5,0Z" style="opacity: 1; stroke-width: 0px; fill: rgb(46, 94, 140); fill-opacity: 1;"/><path class="point" transform="translate(310.71,84.14)" d="M2.5,0A2.5,2.5 0 1,1 0,-2.5A2.5,2.5 0 0,1 2.5,0Z" style="opacity: 1; stroke-width: 0px; fill: rgb(46, 94, 140); fill-opacity: 1;"/><path class="point" transform="translate(332.14,74.1)" d="M2.5,0A2.5,2.5 0 1,1 0,-2.5A2.5,2.5 0 0,1 2.5,0Z" style="opacity: 1; stroke-width: 0px; fill: rgb(46, 94, 140); fill-opacity: 1;"/><path class="point" transform="translate(353.57,89.34)" d="M2.5,0A2.5,2.5 0 1,1 0,-2.5A2.5,2.5 0 0,1 2.5,0Z" style="opacity: 1; stroke-width: 0px; fill: rgb(46, 94, 140); fill-opacity: 1;"/><path class="point" transform="translate(375,92.37)" d="M2.5,0A2.5,2.5 0 1,1 0,-2.5A2.5,2.5 0 0,1 2.5,0Z" style="opacity: 1; stroke-width: 0px; fill: rgb(46, 94, 140); fill-opacity: 1;"/><path class="point" transform="translate(396.43,92.3)" d="M2.5,0A2.5,2.5 0 1,1 0,-2.5A2.5,2.5 0 0,1 2.5,0Z" style="opacity: 1; stroke-width: 0px; fill: rgb(46, 94, 140); fill-opacity: 1;"/><path class="point" transform="translate(417.86,101.83)" d="M2.5,0A2.5,2.5 0 1,1 0,-2.5A2.5,2.5 0 0,1 2.5,0Z" style="opacity: 1; stroke-width: 0px; fill: rgb(46, 94, 140); fill-opacity: 1;"/><path class="point" transform="translate(439.29,122.71)" d="M2.5,0A2.5,2.5 0 1,1 0,-2.5A2.5,2.5 0 0,1 2.5,0Z" style="opacity: 1; stroke-width: 0px; fill: rgb(46, 94, 140); fill-opacity: 1;"/><path class="point" transform="translate(460.71,95.69)" d="M2.5,0A2.5,2.5 0 1,1 0,-2.5A2.5,2.5 0 0,1 2.5,0Z" style="opacity: 1; stroke-width: 0px; fill: rgb(46, 94, 140); fill-opacity: 1;"/><path class="point" transform="translate(482.14,94.47)" d="M2.5,0A2.5,2.5 0 1,1 0,-2.5A2.5,2.5 0 0,1 2.5,0Z" style="opacity: 1; stroke-width: 0px; fill: rgb(46, 94, 140); fill-opacity: 1;"/><path class="point" transform="translate(503.57,105.23)" d="M2.5,0A2.5,2.5 0 1,1 0,-2.5A2.5,2.5 0 0,1 2.5,0Z" style="opacity: 1; stroke-width: 0px; fill: rgb(46, 94, 140); fill-opacity: 1;"/><path class="point" transform="translate(525,97.5)" d="M2.5,0A2.5,2.5 0 1,1 0,-2.5A2.5,2.5 0 0,1 2.5,0Z" style="opacity: 1; stroke-width: 0px; fill: rgb(46, 94, 140); fill-opacity: 1;"/><path class="point" transform="translate(557.14,185.11)" d="M2.5,0A2.5,2.5 0 1,1 0,-2.5A2.5,2.5 0 0,1 2.5,0Z" style="opacity: 1; stroke-width: 0px; fill: rgb(46, 94, 140); fill-opacity: 1;"/><path class="point" transform="translate(567.86,146.25)" d="M2.5,0A2.5,2.5 0 1,1 0,-2.5A2.5,2.5 0 0,1 2.5,0Z" style="opacity: 1; stroke-width: 0px; fill: rgb(46, 94, 140); fill-opacity: 1;"/><path class="point" transform="translate(589.29,156)" d="M2.5,0A2.5,2.5 0 1,1 0,-2.5A2.5,2.5 0 0,1 2.5,0Z" style="opacity: 1; stroke-width: 0px; fill: rgb(46, 94, 140); fill-opacity: 1;"/></g><g class="text"/></g></g></g></g><g class="zerolinelayer-above"/><path class="xlines-above crisp" d="" style="fill: none; stroke-width: 1px; stroke: rgb(0, 0, 0); stroke-opacity: 0;"/><path class="ylines-above crisp" d="M0,0" style="fill: none;"/><g class="overlines-above"><path class="xy2-x crisp" d="M0,0" style="fill: none;"/><path class="xy2-y crisp" d="M0,0" style="fill: none;"/></g><g class="xaxislayer-above"><path class="xtick ticks crisp" d="M0,436v5" transform="translate(90.71000000000001,0)" style="stroke: rgb(226, 222, 215); stroke-opacity: 1; stroke-width: 1px;"/><path class="xtick ticks crisp" d="M0,436v5" transform="translate(197.86,0)" style="stroke: rgb(226, 222, 215); stroke-opacity: 1; stroke-width: 1px;"/><path class="xtick ticks crisp" d="M0,436v5" transform="translate(305,0)" style="stroke: rgb(226, 222, 215); stroke-opacity: 1; stroke-width: 1px;"/><path class="xtick ticks crisp" d="M0,436v5" transform="translate(412.14,0)" style="stroke: rgb(226, 222, 215); stroke-opacity: 1; stroke-width: 1px;"/><path class="xtick ticks crisp" d="M0,436v5" transform="translate(519.29,0)" style="stroke: rgb(226, 222, 215); stroke-opacity: 1; stroke-width: 1px;"/><path class="xtick ticks crisp" d="M0,436v5" transform="translate(626.43,0)" style="stroke: rgb(226, 222, 215); stroke-opacity: 1; stroke-width: 1px;"/><g class="xtick"><text text-anchor="middle" x="0" y="455.4" transform="translate(90.71000000000001,0)" style="font-family: 'Helvetica Neue', Helvetica, Arial, sans-serif; font-size: 12px; fill: rgb(89, 89, 89); fill-opacity: 1; white-space: pre;">1970</text></g><g class="xtick"><text text-anchor="middle" x="0" y="455.4" style="font-family: 'Helvetica Neue', Helvetica, Arial, sans-serif; font-size: 12px; fill: rgb(89, 89, 89); fill-opacity: 1; white-space: pre;" transform="translate(197.86,0)">1980</text></g><g class="xtick"><text text-anchor="middle" x="0" y="455.4" style="font-family: 'Helvetica Neue', Helvetica, Arial, sans-serif; font-size: 12px; fill: rgb(89, 89, 89); fill-opacity: 1; white-space: pre;" transform="translate(305,0)">1990</text></g><g class="xtick"><text text-anchor="middle" x="0" y="455.4" style="font-family: 'Helvetica Neue', Helvetica, Arial, sans-serif; font-size: 12px; fill: rgb(89, 89, 89); fill-opacity: 1; white-space: pre;" transform="translate(412.14,0)">2000</text></g><g class="xtick"><text text-anchor="middle" x="0" y="455.4" style="font-family: 'Helvetica Neue', Helvetica, Arial, sans-serif; font-size: 12px; fill: rgb(89, 89, 89); fill-opacity: 1; white-space: pre;" transform="translate(519.29,0)">2010</text></g><g class="xtick"><text text-anchor="middle" x="0" y="455.4" style="font-family: 'Helvetica Neue', Helvetica, Arial, sans-serif; font-size: 12px; fill: rgb(89, 89, 89); fill-opacity: 1; white-space: pre;" transform="translate(626.43,0)">2020</text></g></g><g class="yaxislayer-above"><g class="ytick"><text text-anchor="end" x="79" y="4.199999999999999" transform="translate(0,384.06)" style="font-family: 'Helvetica Neue', Helvetica, Arial, sans-serif; font-size: 12px; fill: rgb(156, 43, 46); fill-opacity: 1; white-space: pre;">30 000</text></g><g class="ytick"><text text-anchor="end" x="79" y="4.199999999999999" style="font-family: 'Helvetica Neue', Helvetica, Arial, sans-serif; font-size: 12px; fill: rgb(156, 43, 46); fill-opacity: 1; white-space: pre;" transform="translate(0,313.15)">40 000</text></g><g class="ytick"><text text-anchor="end" x="79" y="4.199999999999999" style="font-family: 'Helvetica Neue', Helvetica, Arial, sans-serif; font-size: 12px; fill: rgb(156, 43, 46); fill-opacity: 1; white-space: pre;" transform="translate(0,242.24)">50 000</text></g><g class="ytick"><text text-anchor="end" x="79" y="4.199999999999999" style="font-family: 'Helvetica Neue', Helvetica, Arial, sans-serif; font-size: 12px; fill: rgb(156, 43, 46); fill-opacity: 1; white-space: pre;" transform="translate(0,171.32)">60 000</text></g></g><g class="overaxes-above"><g class="xy2-x"/><g class="xy2-y"><g class="y2tick"><text text-anchor="start" x="681" y="4.199999999999999" transform="translate(0,435)" style="font-family: 'Helvetica Neue', Helvetica, Arial, sans-serif; font-size: 12px; fill: rgb(46, 94, 140); fill-opacity: 1; white-space: pre;">0</text></g><g class="y2tick"><text text-anchor="start" x="681" y="4.199999999999999" style="font-family: 'Helvetica Neue', Helvetica, Arial, sans-serif; font-size: 12px; fill: rgb(46, 94, 140); fill-opacity: 1; white-space: pre;" transform="translate(0,398.89)">5</text></g><g class="y2tick"><text text-anchor="start" x="681" y="4.199999999999999" style="font-family: 'Helvetica Neue', Helvetica, Arial, sans-serif; font-size: 12px; fill: rgb(46, 94, 140); fill-opacity: 1; white-space: pre;" transform="translate(0,362.78)">10</text></g><g class="y2tick"><text text-anchor="start" x="681" y="4.199999999999999" style="font-family: 'Helvetica Neue', Helvetica, Arial, sans-serif; font-size: 12px; fill: rgb(46, 94, 140); fill-opacity: 1; white-space: pre;" transform="translate(0,326.66999999999996)">15</text></g><g class="y2tick"><text text-anchor="start" x="681" y="4.199999999999999" style="font-family: 'Helvetica Neue', Helvetica, Arial, sans-serif; font-size: 12px; fill: rgb(46, 94, 140); fill-opacity: 1; white-space: pre;" transform="translate(0,290.56)">20</text></g><g class="y2tick"><text text-anchor="start" x="681" y="4.199999999999999" style="font-family: 'Helvetica Neue', Helvetica, Arial, sans-serif; font-size: 12px; fill: rgb(46, 94, 140); fill-opacity: 1; white-space: pre;" transform="translate(0,254.44)">25</text></g><g class="y2tick"><text text-anchor="start" x="681" y="4.199999999999999" style="font-family: 'Helvetica Neue', Helvetica, Arial, sans-serif; font-size: 12px; fill: rgb(46, 94, 140); fill-opacity: 1; white-space: pre;" transform="translate(0,218.32999999999998)">30</text></g><g class="y2tick"><text text-anchor="start" x="681" y="4.199999999999999" style="font-family: 'Helvetica Neue', Helvetica, Arial, sans-serif; font-size: 12px; fill: rgb(46, 94, 140); fill-opacity: 1; white-space: pre;" transform="translate(0,182.22)">35</text></g><g class="y2tick"><text text-anchor="start" x="681" y="4.199999999999999" style="font-family: 'Helvetica Neue', Helvetica, Arial, sans-serif; font-size: 12px; fill: rgb(46, 94, 140); fill-opacity: 1; white-space: pre;" transform="translate(0,146.11)">40</text></g><g class="y2tick"><text text-anchor="start" x="681" y="4.199999999999999" style="font-family: 'Helvetica Neue', Helvetica, Arial, sans-serif; font-size: 12px; fill: rgb(46, 94, 140); fill-opacity: 1; white-space: pre;" transform="translate(0,110)">45</text></g></g></g></g><g class="subplot xy2"/></g><g class="polarlayer"/><g class="smithlayer"/><g class="ternarylayer"/><g class="geolayer"/><g class="funnelarealayer"/><g class="pielayer"/><g class="iciclelayer"/><g class="treemaplayer"/><g class="sunburstlayer"/><g class="glimages"/><defs id="topdefs-de87b3"><g class="clips"/><clipPath id="legendde87b3"><rect width="307" height="29" x="0" y="0"/></clipPath></defs><g class="layer-above"><g class="imagelayer"/><g class="shapelayer"/></g><g class="infolayer"><g class="legend" pointer-events="all" transform="translate(80,74.5)"><rect class="bg" shape-rendering="crispEdges" style="stroke: rgb(68, 68, 68); stroke-opacity: 1; fill: rgb(0, 0, 0); fill-opacity: 0; stroke-width: 0px;" width="307" height="29" x="0" y="0"/><g class="scrollbox" transform="" clip-path="url(#legendde87b3)"><g class="groups"><g class="traces" transform="translate(0,14.5)" style="opacity: 1;"><text class="legendtext" text-anchor="start" x="40" y="4.680000000000001" style="font-family: 'Helvetica Neue', Helvetica, Arial, sans-serif; font-size: 12px; fill: rgb(26, 26, 26); fill-opacity: 1; white-space: pre;">PIB réel / habitant</text><g class="layers" style="opacity: 1;"><g class="legendfill"/><g class="legendlines"><path class="js-line" d="M5,0h30" style="fill: none; stroke: rgb(156, 43, 46); stroke-opacity: 1; stroke-width: 3px;"/></g><g class="legendsymbols"><g class="legendpoints"/></g></g><rect class="legendtoggle" x="0" y="-9.5" width="138.734375" height="19" style="fill: rgb(0, 0, 0); fill-opacity: 0;"/></g><g class="traces" transform="translate(141.234375,14.5)" style="opacity: 1;"><text class="legendtext" text-anchor="start" x="40" y="4.680000000000001" style="font-family: 'Helvetica Neue', Helvetica, Arial, sans-serif; font-size: 12px; fill: rgb(26, 26, 26); fill-opacity: 1; white-space: pre;">« Très heureux » (GSS)</text><g class="layers" style="opacity: 1;"><g class="legendfill"/><g class="legendlines"><path class="js-line" d="M5,0h30" style="fill: none; stroke: rgb(46, 94, 140); stroke-opacity: 1; stroke-width: 2.4px;"/></g><g class="legendsymbols"><g class="legendpoints"><path class="scatterpts" transform="translate(20,0)" d="M2.5,0A2.5,2.5 0 1,1 0,-2.5A2.5,2.5 0 0,1 2.5,0Z" style="opacity: 1; stroke-width: 0px; fill: rgb(46, 94, 140); fill-opacity: 1;"/></g></g></g><rect class="legendtoggle" x="0" y="-9.5" width="162.96875" height="19" style="fill: rgb(0, 0, 0); fill-opacity: 0;"/></g></g></g><rect class="scrollbar" rx="20" ry="3" width="0" height="0" style="fill: rgb(128, 139, 164); fill-opacity: 1;" x="0" y="0"/></g><g class="g-gtitle"><text class="gtitle" x="9.120000000000001" y="20.80000000000001" text-anchor="start" dy="0.7em" style="opacity: 1; font-family: 'Helvetica Neue', Helvetica, Arial, sans-serif; font-size: 19px; fill: rgb(26, 26, 26); fill-opacity: 1; white-space: pre;"><tspan class="line" dy="0em" x="9.120000000000001" y="20.80000000000001"><tspan style="font-weight:bold">Le paradoxe d'Easterlin aux États-Unis</tspan></tspan><tspan class="line" dy="1.3em" x="9.120000000000001" y="20.80000000000001"><tspan style="font-size:13px; fill:#595959">Le revenu réel a plus que doublé depuis 1972 ; la part des Américains « très heureux » n'a pas progressé</tspan></tspan></text></g><g class="g-xtitle"/><g class="g-ytitle" transform="translate(-6.703125,0)"><text class="ytitle" transform="rotate(-90,44,272.5)" x="44" y="272.5" text-anchor="middle" style="opacity: 1; font-family: 'Helvetica Neue', Helvetica, Arial, sans-serif; font-size: 13px; fill: rgb(156, 43, 46); fill-opacity: 1; white-space: pre;">PIB réel par habitant ($ constants 2015)</text></g><g class="g-y2title"><text class="y2title" transform="rotate(-90,722.5,272.5)" x="722.5" y="272.5" text-anchor="middle" style="opacity: 1; font-family: 'Helvetica Neue', Helvetica, Arial, sans-serif; font-size: 13px; fill: rgb(46, 94, 140); fill-opacity: 1; white-space: pre;">Part se déclarant « très heureux » (%)</text></g><g class="annotation" data-index="0" style="opacity: 1;"><g class="annotation-text-g" transform="rotate(0,492.86,177.82)"><g class="cursor-pointer" transform="translate(460,161)"><rect class="bg" x="0.5" y="0.5" width="64" height="33" style="stroke-width: 1px; stroke: rgb(226, 222, 215); stroke-opacity: 1; fill: rgb(251, 249, 245); fill-opacity: 0.85;"/><text class="annotation-text" text-anchor="start" x="4" y="14" style="font-family: 'Helvetica Neue', Helvetica, Arial, sans-serif; font-size: 11px; fill: rgb(26, 26, 26); fill-opacity: 1; white-space: pre;"><tspan class="line" dy="0em" x="4" y="14">2008 : crise</tspan><tspan class="line" dy="1.3em" x="4" y="14">financière</tspan></text></g></g><g class="annotation-arrow-g" style="opacity: 1;"><path d="M494.9225,194.32L497.86,217.82" style="stroke-width: 1px; stroke: rgb(89, 89, 89); stroke-opacity: 1; stroke-dasharray: 0px, 0px, 23.6829px, 23.6829px;"/></g></g><g class="annotation" data-index="1" style="opacity: 1;"><g class="annotation-text-g" transform="rotate(0,607.14,330.11)"><g class="cursor-pointer" transform="translate(546,314)"><rect class="bg" x="0.5" y="0.5" width="121" height="32" style="stroke-width: 1px; stroke: rgb(226, 222, 215); stroke-opacity: 1; fill: rgb(251, 249, 245); fill-opacity: 0.85;"/><text class="annotation-text" text-anchor="middle" x="61.046875" y="14" style="font-family: 'Helvetica Neue', Helvetica, Arial, sans-serif; font-size: 10px; fill: rgb(26, 26, 26); fill-opacity: 1; white-space: pre;"><tspan class="line" dy="0em" x="61.046875" y="14">2021 : COVID +</tspan><tspan class="line" dy="1.3em" x="61.046875" y="14">refonte du protocole GSS</tspan></text></g></g><g class="annotation-arrow-g" style="opacity: 1;"><path d="M620.8542857142857,314.11L637.14,295.11" style="stroke-width: 1px; stroke: rgb(89, 89, 89); stroke-opacity: 1; stroke-dasharray: 0px, 0px, 25.0245px, 25.0245px;"/></g></g><g class="annotation" data-index="2" style="opacity: 1;"><g class="annotation-text-g" transform="rotate(0,305,196.67000000000002)"><g class="cursor-pointer" transform="translate(261,182)"><rect class="bg" x="0.5" y="0.5" width="87" height="29" style="stroke-width: 1px; stroke: rgb(0, 0, 0); stroke-opacity: 0; fill: rgb(0, 0, 0); fill-opacity: 0;"/><text class="annotation-text" text-anchor="middle" x="44.1171875" y="12" style="font-family: 'Helvetica Neue', Helvetica, Arial, sans-serif; font-size: 11px; fill: rgb(46, 94, 140); fill-opacity: 1; white-space: pre;"><tspan class="line" dy="0em" x="44.1171875" y="12">Bonheur ~ stable</tspan><tspan class="line" dy="1.3em" x="44.1171875" y="12">(≈ 30-36 %)</tspan></text></g></g></g><g class="annotation" data-index="3" style="opacity: 1;"><g class="annotation-text-g" transform="rotate(0,390,504)"><g class="cursor-pointer" transform="translate(80,487)"><rect class="bg" x="0.5" y="0.5" width="619" height="33" style="stroke-width: 1px; stroke: rgb(0, 0, 0); stroke-opacity: 0; fill: rgb(0, 0, 0); fill-opacity: 0;"/><text class="annotation-text" text-anchor="start" x="2" y="12" style="font-family: 'Helvetica Neue', Helvetica, Arial, sans-serif; font-size: 14px; fill: rgb(89, 89, 89); fill-opacity: 1; white-space: pre;"><tspan class="line" dy="0em" x="2" y="12"><tspan style="font-size:11px">Source : Banque mondiale (PIB réel/hab, $2015) ; General Social Survey, NORC (var. HAPPY, pondérée). Extraction : 06/2026.</tspan></tspan><tspan class="line" dy="1.3em" x="2" y="12"><tspan style="font-size:11px">Lecture : la croissance économique de long terme ne se traduit pas mécaniquement en hausse du bien-être subjectif moyen.</tspan></tspan></text></g></g></g></g></svg>