<svg class="main-svg" xmlns="http://www.w3.org/2000/svg" xmlns:xlink="http://www.w3.org/1999/xlink" width="900" height="500" style="" viewBox="0 0 900 500"><rect x="0" y="0" width="900" height="500" style="fill: rgb(251, 249, 245); fill-opacity: 1;"/><defs id="defs-5333f4"><g class="clips"><clipPath id="clip5333f4xyplot" class="plotclip"><rect width="356.4" height="270"/></clipPath><clipPath id="clip5333f4x2y2plot" class="plotclip"><rect width="356.4" height="270"/></clipPath><clipPath class="axesclip" id="clip5333f4x"><rect x="60" y="0" width="356.4" height="500"/></clipPath><clipPath class="axesclip" id="clip5333f4y"><rect x="0" y="110" width="900" height="270"/></clipPath><clipPath class="axesclip" id="clip5333f4xy"><rect x="60" y="110" width="356.4" height="270"/></clipPath><clipPath class="axesclip" id="clip5333f4y2"><rect x="0" y="110" width="900" height="270"/></clipPath><clipPath class="axesclip" id="clip5333f4xy2"><rect x="60" y="110" width="356.4" height="270"/></clipPath><clipPath class="axesclip" id="clip5333f4x2"><rect x="513.6" y="0" width="356.4" height="500"/></clipPath><clipPath class="axesclip" id="clip5333f4x2y"><rect x="513.6" y="110" width="356.4" height="270"/></clipPath><clipPath class="axesclip" id="clip5333f4x2y2"><rect x="513.6" y="110" width="356.4" height="270"/></clipPath></g><g class="gradients"/><g class="patterns"/></defs><g class="bglayer"/><g class="layer-below"><g class="imagelayer"/><g class="shapelayer"/></g><g class="cartesianlayer"><g class="subplot xy"><g class="layer-subplot"><g class="shapelayer"/><g class="imagelayer"/></g><g class="minor-gridlayer"><g class="x"/><g class="y"/></g><g class="gridlayer"><g class="x"/><g class="y"><path class="ygrid crisp" transform="translate(0,327.77)" d="M60,0h356.4" style="stroke: rgb(226, 222, 215); stroke-opacity: 1; stroke-width: 1px;"/><path class="ygrid crisp" transform="translate(0,270.65)" d="M60,0h356.4" style="stroke: rgb(226, 222, 215); stroke-opacity: 1; stroke-width: 1px;"/><path class="ygrid crisp" transform="translate(0,213.53)" d="M60,0h356.4" style="stroke: rgb(226, 222, 215); stroke-opacity: 1; stroke-width: 1px;"/><path class="ygrid crisp" transform="translate(0,156.4)" d="M60,0h356.4" style="stroke: rgb(226, 222, 215); stroke-opacity: 1; stroke-width: 1px;"/></g></g><g class="zerolinelayer"/><g class="layer-between"><g class="shapelayer"/><g class="imagelayer"/></g><path class="xlines-below"/><path class="ylines-below"/><g class="overlines-below"/><g class="xaxislayer-below"/><g class="yaxislayer-below"/><g class="overaxes-below"/><g class="overplot"><g class="xy" transform="translate(60,110)" clip-path="url(#clip5333f4xyplot)"><g class="scatterlayer mlayer"><g class="trace scatter traceab6ee1" style="stroke-miterlimit: 2; opacity: 1;"><g class="fills"/><g class="errorbars"/><g class="lines"><path class="js-line" d="M14.85,213.77L29.7,211.03L44.55,207.49L59.4,199.03L74.25,199.72L89.1,201.21L103.95,200.75L118.8,190.58L133.65,175.39L148.5,165.56L163.35,160.65L178.2,156.42L193.05,154.94L222.75,154.48L237.6,152.19L252.45,153.34L267.3,151.85L282.15,150.59L297,123.4L311.85,132.09L326.7,138.83L341.55,137.8L356.4,135.17" style="vector-effect: none; fill: none; stroke: rgb(156, 43, 46); stroke-opacity: 1; stroke-width: 2px; opacity: 1;"/></g><g class="points"/><g class="text"/></g><g class="trace scatter trace190ec5" style="stroke-miterlimit: 2; opacity: 1;"><g class="fills"/><g class="errorbars"/><g class="lines"><path class="js-line" d="M0,206.69L14.85,207.15L29.7,204.86L44.55,200.18L59.4,198.46L74.25,196.98L89.1,200.18L103.95,200.06L118.8,195.15L133.65,178.81L148.5,176.3L178.2,170.13L193.05,166.82L207.9,164.99L222.75,164.08L252.45,162.02L267.3,162.36L282.15,162.7L297,143.63L311.85,146.02L326.7,147.62L341.55,149.68L356.4,145.57" style="vector-effect: none; fill: none; stroke: rgb(46, 94, 140); stroke-opacity: 1; stroke-width: 2px; opacity: 1;"/></g><g class="points"/><g class="text"/></g><g class="trace scatter tracede9bc6" style="stroke-miterlimit: 2; opacity: 1;"><g class="fills"/><g class="errorbars"/><g class="lines"><path class="js-line" d="M0,207.26L14.85,208.52L29.7,206.57L44.55,202.58L59.4,200.63L74.25,198.23L89.1,199.03L103.95,202.12L118.8,200.41L133.65,192.18L148.5,182.35L163.35,185.21L178.2,183.73L193.05,186.35L207.9,189.78L237.6,196.86L252.45,201.78L267.3,205.43L282.15,207.83L297,197.21L311.85,197.32L326.7,201.32L341.55,203.72L356.4,203.83" style="vector-effect: none; fill: none; stroke: rgb(46, 125, 91); stroke-opacity: 1; stroke-width: 2px; opacity: 1;"/></g><g class="points"/><g class="text"/></g><g class="trace scatter trace2f8100" style="stroke-miterlimit: 2; opacity: 1;"><g class="fills"/><g class="errorbars"/><g class="lines"><path class="js-line" d="M0,139.51L29.7,121.12L44.55,114.72L59.4,104.9L74.25,99.64L103.95,103.07L118.8,99.41L133.65,77.36L148.5,70.85L163.35,57.14L178.2,49.72L193.05,45.03L207.9,42.29L222.75,46.29L237.6,44L267.3,42.18L282.15,39.21L297,13.5L311.85,20.47L326.7,14.64L341.55,23.21L356.4,29.84" style="vector-effect: none; fill: none; stroke: rgb(110, 90, 140); stroke-opacity: 1; stroke-width: 2px; opacity: 1;"/></g><g class="points"/><g class="text"/></g><g class="trace scatter tracea0cb92" style="stroke-miterlimit: 2; opacity: 1;"><g class="fills"/><g class="errorbars"/><g class="lines"><path class="js-line" d="M0,256.5L14.85,255.93L29.7,256.16L89.1,244.05L103.95,244.85L118.8,245.3L133.65,241.99L148.5,242.56L163.35,238.68L178.2,236.62L193.05,233.77L207.9,231.59L222.75,230.57L237.6,230.22L252.45,231.48L267.3,231.59L282.15,229.54L297,222.45L311.85,220.06L326.7,218L341.55,217.2L356.4,218.11" style="vector-effect: none; fill: none; stroke: rgb(199, 123, 48); stroke-opacity: 1; stroke-width: 2px; opacity: 1;"/></g><g class="points"/><g class="text"/></g><g class="trace scatter traceb99326" style="stroke-miterlimit: 2; opacity: 1;"><g class="fills"/><g class="errorbars"/><g class="lines"><path class="js-line" d="M0,248.96L29.7,245.65L44.55,244.73L89.1,246.1L103.95,242.11L118.8,244.39L133.65,236.05L163.35,236.96L178.2,236.28L207.9,230L222.75,228.28L237.6,217.77L252.45,213.32L267.3,211.03L282.15,206.57L297,194.81L311.85,192.52L326.7,186.58L341.55,178.81L356.4,171.62" style="vector-effect: none; fill: none; stroke: rgb(201, 162, 39); stroke-opacity: 1; stroke-width: 2px; opacity: 1;"/></g><g class="points"/><g class="text"/></g></g></g></g><g class="zerolinelayer-above"/><path class="xlines-above crisp" d="" style="fill: none; stroke-width: 1px; stroke: rgb(0, 0, 0); stroke-opacity: 0;"/><path class="ylines-above crisp" d="M0,0" style="fill: none;"/><g class="overlines-above"/><g class="xaxislayer-above"><path class="xtick ticks crisp" d="M0,381v5" transform="translate(119.4,0)" style="stroke: rgb(226, 222, 215); stroke-opacity: 1; stroke-width: 1px;"/><path class="xtick ticks crisp" d="M0,381v5" transform="translate(208.5,0)" style="stroke: rgb(226, 222, 215); stroke-opacity: 1; stroke-width: 1px;"/><path class="xtick ticks crisp" d="M0,381v5" transform="translate(297.6,0)" style="stroke: rgb(226, 222, 215); stroke-opacity: 1; stroke-width: 1px;"/><path class="xtick ticks crisp" d="M0,381v5" transform="translate(386.7,0)" style="stroke: rgb(226, 222, 215); stroke-opacity: 1; stroke-width: 1px;"/><g class="xtick"><text text-anchor="middle" x="0" y="400.4" transform="translate(119.4,0)" style="font-family: 'Helvetica Neue', Helvetica, Arial, sans-serif; font-size: 12px; fill: rgb(89, 89, 89); fill-opacity: 1; white-space: pre;">2004</text></g><g class="xtick"><text text-anchor="middle" x="0" y="400.4" style="font-family: 'Helvetica Neue', Helvetica, Arial, sans-serif; font-size: 12px; fill: rgb(89, 89, 89); fill-opacity: 1; white-space: pre;" transform="translate(208.5,0)">2010</text></g><g class="xtick"><text text-anchor="middle" x="0" y="400.4" style="font-family: 'Helvetica Neue', Helvetica, Arial, sans-serif; font-size: 12px; fill: rgb(89, 89, 89); fill-opacity: 1; white-space: pre;" transform="translate(297.6,0)">2016</text></g><g class="xtick"><text text-anchor="middle" x="0" y="400.4" style="font-family: 'Helvetica Neue', Helvetica, Arial, sans-serif; font-size: 12px; fill: rgb(89, 89, 89); fill-opacity: 1; white-space: pre;" transform="translate(386.7,0)">2022</text></g></g><g class="yaxislayer-above"><g class="ytick"><text text-anchor="end" x="59" y="4.199999999999999" transform="translate(0,327.77)" style="font-family: 'Helvetica Neue', Helvetica, Arial, sans-serif; font-size: 12px; fill: rgb(89, 89, 89); fill-opacity: 1; white-space: pre;">50</text></g><g class="ytick"><text text-anchor="end" x="59" y="4.199999999999999" style="font-family: 'Helvetica Neue', Helvetica, Arial, sans-serif; font-size: 12px; fill: rgb(89, 89, 89); fill-opacity: 1; white-space: pre;" transform="translate(0,270.65)">100</text></g><g class="ytick"><text text-anchor="end" x="59" y="4.199999999999999" style="font-family: 'Helvetica Neue', Helvetica, Arial, sans-serif; font-size: 12px; fill: rgb(89, 89, 89); fill-opacity: 1; white-space: pre;" transform="translate(0,213.53)">150</text></g><g class="ytick"><text text-anchor="end" x="59" y="4.199999999999999" style="font-family: 'Helvetica Neue', Helvetica, Arial, sans-serif; font-size: 12px; fill: rgb(89, 89, 89); fill-opacity: 1; white-space: pre;" transform="translate(0,156.4)">200</text></g></g><g class="overaxes-above"/></g><g class="subplot x2y2"><g class="layer-subplot"><g class="shapelayer"/><g class="imagelayer"/></g><g class="minor-gridlayer"><g class="x2"/><g class="y2"/></g><g class="gridlayer"><g class="x2"/><g class="y2"><path class="y2grid crisp" transform="translate(0,344.63)" d="M513.6,0h356.4" style="stroke: rgb(226, 222, 215); stroke-opacity: 1; stroke-width: 1px;"/><path class="y2grid crisp" transform="translate(0,275.87)" d="M513.6,0h356.4" style="stroke: rgb(226, 222, 215); stroke-opacity: 1; stroke-width: 1px;"/><path class="y2grid crisp" transform="translate(0,207.11)" d="M513.6,0h356.4" style="stroke: rgb(226, 222, 215); stroke-opacity: 1; stroke-width: 1px;"/><path class="y2grid crisp" transform="translate(0,138.35)" d="M513.6,0h356.4" style="stroke: rgb(226, 222, 215); stroke-opacity: 1; stroke-width: 1px;"/></g></g><g class="zerolinelayer"/><g class="layer-between"><g class="shapelayer"/><g class="imagelayer"/></g><path class="xlines-below"/><path class="ylines-below"/><g class="overlines-below"/><g class="xaxislayer-below"/><g class="yaxislayer-below"/><g class="overaxes-below"/><g class="overplot"><g class="x2y2" transform="translate(513.6,110)" clip-path="url(#clip5333f4x2y2plot)"><g class="scatterlayer mlayer"><g class="trace scatter trace66461c" style="stroke-miterlimit: 2; opacity: 1;"><g class="fills"/><g class="errorbars"/><g class="lines"><path class="js-line" d="M0,13.5L14.85,59.84L29.7,109.9L44.55,126.13L59.4,120.22L74.25,102.2L89.1,86.94L103.95,96.84L118.8,149.92L133.65,242.89L148.5,211.39L178.2,171.24L193.05,125.72L207.9,118.43L222.75,113.48L237.6,122.83L252.45,128.33L267.3,132.46L282.15,138.23L297,256.5L311.85,217.72L326.7,105.23L341.55,155.01L356.4,153.22" style="vector-effect: none; fill: none; stroke: rgb(156, 43, 46); stroke-opacity: 1; stroke-width: 2px; opacity: 1;"/></g><g class="points"/><g class="text"/></g><g class="trace scatter trace878777" style="stroke-miterlimit: 2; opacity: 1;"><g class="fills"/><g class="errorbars"/><g class="lines"><path class="js-line" d="M0,78.41L14.85,78.41L29.7,101.65L44.55,114.58L59.4,108.8L74.25,100.69L89.1,94.09L103.95,97.8L118.8,102.75L133.65,167.8L148.5,160.92L163.35,132.59L178.2,132.04L193.05,132.87L207.9,129.71L222.75,122.69L237.6,122.69L252.45,118.7L267.3,104.68L282.15,109.21L297,202.32L326.7,135.89L341.55,146.21L356.4,148.13" style="vector-effect: none; fill: none; stroke: rgb(46, 94, 140); stroke-opacity: 1; stroke-width: 2px; opacity: 1;"/></g><g class="points"/><g class="text"/></g><g class="trace scatter trace88ab64" style="stroke-miterlimit: 2; opacity: 1;"><g class="fills"/><g class="errorbars"/><g class="lines"><path class="js-line" d="M0,37.43L14.85,96.84L29.7,109.21L44.55,112.65L59.4,109.21L74.25,103.85L89.1,80.47L103.95,55.17L118.8,59.84L133.65,104.26L148.5,121.59L163.35,74.7L178.2,66.31L193.05,70.57L207.9,65.21L237.6,65.21L252.45,64.52L267.3,58.47L282.15,67.96L297,148.41L311.85,132.59L326.7,113.75L341.55,119.39L356.4,119.12" style="vector-effect: none; fill: none; stroke: rgb(46, 125, 91); stroke-opacity: 1; stroke-width: 2px; opacity: 1;"/></g><g class="points"/><g class="text"/></g><g class="trace scatter trace139509" style="stroke-miterlimit: 2; opacity: 1;"><g class="fills"/><g class="errorbars"/><g class="lines"><path class="js-line" d="M0,154.18L14.85,141.26L29.7,159.27L44.55,164.09L59.4,137.54L74.25,127.51L89.1,108.39L103.95,105.91L118.8,121.73L133.65,197.92L148.5,190.63L163.35,188.98L178.2,178.66L193.05,171.51L207.9,144.83L222.75,119.67L237.6,119.53L252.45,114.58L267.3,107.15L282.15,115.95L297,199.15L311.85,160.1L326.7,134.66L341.55,108.53L356.4,97.66" style="vector-effect: none; fill: none; stroke: rgb(110, 90, 140); stroke-opacity: 1; stroke-width: 2px; opacity: 1;"/></g><g class="points"/><g class="text"/></g><g class="trace scatter trace510b85" style="stroke-miterlimit: 2; opacity: 1;"><g class="fills"/><g class="errorbars"/><g class="lines"><path class="js-line" d="M0,29.45L14.85,50.36L29.7,41.14L44.55,65.9L59.4,83.22L74.25,70.02L89.1,64.8L103.95,46.51L118.8,59.02L133.65,81.16L148.5,61.63L163.35,59.57L178.2,61.63L193.05,74.56L207.9,77.45L222.75,79.24L237.6,65.21L252.45,58.61L267.3,53.93L282.15,82.95L297,116.37L311.85,87.76L326.7,106.74L341.55,93.54L356.4,93.67" style="vector-effect: none; fill: none; stroke: rgb(199, 123, 48); stroke-opacity: 1; stroke-width: 2px; opacity: 1;"/></g><g class="points"/><g class="text"/></g><g class="trace scatter tracee45d25" style="stroke-miterlimit: 2; opacity: 1;"><g class="fills"/><g class="errorbars"/><g class="lines"><path class="js-line" d="M0,125.85L14.85,122.55L29.7,128.61L59.4,111.28L74.25,110.18L89.1,106.6L103.95,91.06L118.8,91.89L133.65,114.99L148.5,95.88L163.35,91.75L178.2,94.64L193.05,101.51L207.9,98.9L222.75,124.62L237.6,133.69L252.45,132.87L267.3,144.01L282.15,168.21L297,215.66L311.85,166.01L326.7,185.13L341.55,176.74L356.4,184.99" style="vector-effect: none; fill: none; stroke: rgb(201, 162, 39); stroke-opacity: 1; stroke-width: 2px; opacity: 1;"/></g><g class="points"/><g class="text"/></g></g></g></g><g class="zerolinelayer-above"/><path class="xlines-above crisp" d="" style="fill: none; stroke-width: 1px; stroke: rgb(0, 0, 0); stroke-opacity: 0;"/><path class="ylines-above crisp" d="M0,0" style="fill: none;"/><g class="overlines-above"/><g class="xaxislayer-above"><path class="x2tick ticks crisp" d="M0,381v5" transform="translate(573,0)" style="stroke: rgb(226, 222, 215); stroke-opacity: 1; stroke-width: 1px;"/><path class="x2tick ticks crisp" d="M0,381v5" transform="translate(662.1,0)" style="stroke: rgb(226, 222, 215); stroke-opacity: 1; stroke-width: 1px;"/><path class="x2tick ticks crisp" d="M0,381v5" transform="translate(751.2,0)" style="stroke: rgb(226, 222, 215); stroke-opacity: 1; stroke-width: 1px;"/><path class="x2tick ticks crisp" d="M0,381v5" transform="translate(840.3,0)" style="stroke: rgb(226, 222, 215); stroke-opacity: 1; stroke-width: 1px;"/><g class="x2tick"><text text-anchor="middle" x="0" y="400.4" transform="translate(573,0)" style="font-family: 'Helvetica Neue', Helvetica, Arial, sans-serif; font-size: 12px; fill: rgb(89, 89, 89); fill-opacity: 1; white-space: pre;">2004</text></g><g class="x2tick"><text text-anchor="middle" x="0" y="400.4" style="font-family: 'Helvetica Neue', Helvetica, Arial, sans-serif; font-size: 12px; fill: rgb(89, 89, 89); fill-opacity: 1; white-space: pre;" transform="translate(662.1,0)">2010</text></g><g class="x2tick"><text text-anchor="middle" x="0" y="400.4" style="font-family: 'Helvetica Neue', Helvetica, Arial, sans-serif; font-size: 12px; fill: rgb(89, 89, 89); fill-opacity: 1; white-space: pre;" transform="translate(751.2,0)">2016</text></g><g class="x2tick"><text text-anchor="middle" x="0" y="400.4" style="font-family: 'Helvetica Neue', Helvetica, Arial, sans-serif; font-size: 12px; fill: rgb(89, 89, 89); fill-opacity: 1; white-space: pre;" transform="translate(840.3,0)">2022</text></g></g><g class="yaxislayer-above"><g class="y2tick"><text text-anchor="end" x="512.6" y="4.199999999999999" transform="translate(0,344.63)" style="font-family: 'Helvetica Neue', Helvetica, Arial, sans-serif; font-size: 12px; fill: rgb(89, 89, 89); fill-opacity: 1; white-space: pre;">−10</text></g><g class="y2tick"><text text-anchor="end" x="512.6" y="4.199999999999999" style="font-family: 'Helvetica Neue', Helvetica, Arial, sans-serif; font-size: 12px; fill: rgb(89, 89, 89); fill-opacity: 1; white-space: pre;" transform="translate(0,275.87)">−5</text></g><g class="y2tick"><text text-anchor="end" x="512.6" y="4.199999999999999" style="font-family: 'Helvetica Neue', Helvetica, Arial, sans-serif; font-size: 12px; fill: rgb(89, 89, 89); fill-opacity: 1; white-space: pre;" transform="translate(0,207.11)">0</text></g><g class="y2tick"><text text-anchor="end" x="512.6" y="4.199999999999999" style="font-family: 'Helvetica Neue', Helvetica, Arial, sans-serif; font-size: 12px; fill: rgb(89, 89, 89); fill-opacity: 1; white-space: pre;" transform="translate(0,138.35)">5</text></g></g><g class="overaxes-above"/></g></g><g class="polarlayer"/><g class="smithlayer"/><g class="ternarylayer"/><g class="geolayer"/><g class="funnelarealayer"/><g class="pielayer"/><g class="iciclelayer"/><g class="treemaplayer"/><g class="sunburstlayer"/><g class="glimages"/><defs id="topdefs-5333f4"><g class="clips"/><clipPath id="legend5333f4"><rect width="559" height="29" x="0" y="0"/></clipPath></defs><g class="layer-above"><g class="imagelayer"/><g class="shapelayer"><g class="shape-group" data-index="0" clip-path="url(#clip5333f4y2)"><path data-index="0" fill-rule="evenodd" d="M513.6,207.11L870,207.11" style="opacity: 1; stroke: rgb(89, 89, 89); stroke-opacity: 1; fill: rgb(0, 0, 0); fill-opacity: 0; stroke-width: 1px;"/></g></g></g><g class="infolayer"><g class="legend" pointer-events="all" transform="translate(185.5,423.2)"><rect class="bg" shape-rendering="crispEdges" style="stroke: rgb(68, 68, 68); stroke-opacity: 1; fill: rgb(0, 0, 0); fill-opacity: 0; stroke-width: 0px;" width="559" height="29" x="0" y="0"/><g class="scrollbox" transform="" clip-path="url(#legend5333f4)"><g class="groups" transform=""><g class="traces" transform="translate(0,14.5)" style="opacity: 1;"><text class="legendtext" text-anchor="start" x="40" y="4.680000000000001" style="font-family: 'Helvetica Neue', Helvetica, Arial, sans-serif; font-size: 12px; fill: rgb(26, 26, 26); fill-opacity: 1; white-space: pre;">États-Unis</text><g class="layers" style="opacity: 1;"><g class="legendfill"/><g class="legendlines"><path class="js-line" d="M5,0h30" style="fill: none; stroke: rgb(156, 43, 46); stroke-opacity: 1; stroke-width: 2px;"/></g><g class="legendsymbols"><g class="legendpoints"/></g></g><rect class="legendtoggle" x="0" y="-9.5" width="98.515625" height="19" style="fill: rgb(0, 0, 0); fill-opacity: 0;"/></g></g><g class="groups" transform="translate(101.015625,0)"><g class="traces" transform="translate(0,14.5)" style="opacity: 1;"><text class="legendtext" text-anchor="start" x="40" y="4.680000000000001" style="font-family: 'Helvetica Neue', Helvetica, Arial, sans-serif; font-size: 12px; fill: rgb(26, 26, 26); fill-opacity: 1; white-space: pre;">France</text><g class="layers" style="opacity: 1;"><g class="legendfill"/><g class="legendlines"><path class="js-line" d="M5,0h30" style="fill: none; stroke: rgb(46, 94, 140); stroke-opacity: 1; stroke-width: 2px;"/></g><g class="legendsymbols"><g class="legendpoints"/></g></g><rect class="legendtoggle" x="0" y="-9.5" width="79.390625" height="19" style="fill: rgb(0, 0, 0); fill-opacity: 0;"/></g></g><g class="groups" transform="translate(182.90625,0)"><g class="traces" transform="translate(0,14.5)" style="opacity: 1;"><text class="legendtext" text-anchor="start" x="40" y="4.680000000000001" style="font-family: 'Helvetica Neue', Helvetica, Arial, sans-serif; font-size: 12px; fill: rgb(26, 26, 26); fill-opacity: 1; white-space: pre;">Allemagne</text><g class="layers" style="opacity: 1;"><g class="legendfill"/><g class="legendlines"><path class="js-line" d="M5,0h30" style="fill: none; stroke: rgb(46, 125, 91); stroke-opacity: 1; stroke-width: 2px;"/></g><g class="legendsymbols"><g class="legendpoints"/></g></g><rect class="legendtoggle" x="0" y="-9.5" width="98.806640625" height="19" style="fill: rgb(0, 0, 0); fill-opacity: 0;"/></g></g><g class="groups" transform="translate(284.212890625,0)"><g class="traces" transform="translate(0,14.5)" style="opacity: 1;"><text class="legendtext" text-anchor="start" x="40" y="4.680000000000001" style="font-family: 'Helvetica Neue', Helvetica, Arial, sans-serif; font-size: 12px; fill: rgb(26, 26, 26); fill-opacity: 1; white-space: pre;">Japon</text><g class="layers" style="opacity: 1;"><g class="legendfill"/><g class="legendlines"><path class="js-line" d="M5,0h30" style="fill: none; stroke: rgb(110, 90, 140); stroke-opacity: 1; stroke-width: 2px;"/></g><g class="legendsymbols"><g class="legendpoints"/></g></g><rect class="legendtoggle" x="0" y="-9.5" width="75.859375" height="19" style="fill: rgb(0, 0, 0); fill-opacity: 0;"/></g></g><g class="groups" transform="translate(362.572265625,0)"><g class="traces" transform="translate(0,14.5)" style="opacity: 1;"><text class="legendtext" text-anchor="start" x="40" y="4.680000000000001" style="font-family: 'Helvetica Neue', Helvetica, Arial, sans-serif; font-size: 12px; fill: rgb(26, 26, 26); fill-opacity: 1; white-space: pre;">Corée du Sud</text><g class="layers" style="opacity: 1;"><g class="legendfill"/><g class="legendlines"><path class="js-line" d="M5,0h30" style="fill: none; stroke: rgb(199, 123, 48); stroke-opacity: 1; stroke-width: 2px;"/></g><g class="legendsymbols"><g class="legendpoints"/></g></g><rect class="legendtoggle" x="0" y="-9.5" width="116.96875" height="19" style="fill: rgb(0, 0, 0); fill-opacity: 0;"/></g></g><g class="groups" transform="translate(482.041015625,0)"><g class="traces" transform="translate(0,14.5)" style="opacity: 1;"><text class="legendtext" text-anchor="start" x="40" y="4.680000000000001" style="font-family: 'Helvetica Neue', Helvetica, Arial, sans-serif; font-size: 12px; fill: rgb(26, 26, 26); fill-opacity: 1; white-space: pre;">Chine</text><g class="layers" style="opacity: 1;"><g class="legendfill"/><g class="legendlines"><path class="js-line" d="M5,0h30" style="fill: none; stroke: rgb(201, 162, 39); stroke-opacity: 1; stroke-width: 2px;"/></g><g class="legendsymbols"><g class="legendpoints"/></g></g><rect class="legendtoggle" x="0" y="-9.5" width="73.625" height="19" style="fill: rgb(0, 0, 0); fill-opacity: 0;"/></g></g></g><rect class="scrollbar" rx="20" ry="3" width="0" height="0" style="fill: rgb(128, 139, 164); fill-opacity: 1;" x="0" y="0"/></g><g class="g-gtitle"><text class="gtitle" x="10.8" y="20" text-anchor="start" dy="0.7em" style="opacity: 1; font-family: 'Helvetica Neue', Helvetica, Arial, sans-serif; font-size: 19px; fill: rgb(26, 26, 26); fill-opacity: 1; white-space: pre;"><tspan class="line" dy="0em" x="10.8" y="20"><tspan style="font-weight:bold">La dette, capital emprunté au futur</tspan></tspan><tspan class="line" dy="1.3em" x="10.8" y="20"><tspan style="font-size:13px; fill:#595959">Dette publique et solde primaire : qui finance son bien-être présent par l'endettement ?</tspan></tspan></text></g><g class="g-xtitle"/><g class="g-x2title"/><g class="g-ytitle"><text class="ytitle" transform="rotate(-90,24,245)" x="24" y="245" text-anchor="middle" style="opacity: 1; font-family: 'Helvetica Neue', Helvetica, Arial, sans-serif; font-size: 13px; fill: rgb(89, 89, 89); fill-opacity: 1; white-space: pre;">% du PIB</text></g><g class="g-y2title"><text class="y2title" transform="rotate(-90,477.6,245)" x="477.6" y="245" text-anchor="middle" style="opacity: 1; font-family: 'Helvetica Neue', Helvetica, Arial, sans-serif; font-size: 13px; fill: rgb(89, 89, 89); fill-opacity: 1; white-space: pre;">% du PIB</text></g><g class="annotation" data-index="0" style="opacity: 1;"><g class="annotation-text-g" transform="rotate(0,238.2,99)"><g class="cursor-pointer" transform="translate(122,88)"><rect class="bg" x="0.5" y="0.5" width="231" height="21" style="stroke-width: 1px; stroke: rgb(0, 0, 0); stroke-opacity: 0; fill: rgb(0, 0, 0); fill-opacity: 0;"/><text class="annotation-text" text-anchor="middle" x="116.109375" y="17" style="font-family: 'Helvetica Neue', Helvetica, Arial, sans-serif; font-size: 16px; fill: rgb(26, 26, 26); fill-opacity: 1; white-space: pre;">Dette publique brute (% du PIB)</text></g></g></g><g class="annotation" data-index="1" style="opacity: 1;"><g class="annotation-text-g" transform="rotate(0,691.8000000000001,99)"><g class="cursor-pointer" transform="translate(597,88)"><rect class="bg" x="0.5" y="0.5" width="188" height="21" style="stroke-width: 1px; stroke: rgb(0, 0, 0); stroke-opacity: 0; fill: rgb(0, 0, 0); fill-opacity: 0;"/><text class="annotation-text" text-anchor="middle" x="94.4609375" y="17" style="font-family: 'Helvetica Neue', Helvetica, Arial, sans-serif; font-size: 16px; fill: rgb(26, 26, 26); fill-opacity: 1; white-space: pre;">Solde primaire (% du PIB)</text></g></g></g><g class="annotation" data-index="2" style="opacity: 1;"><g class="annotation-text-g" transform="rotate(0,594.65,198.86)"><g class="cursor-pointer" transform="translate(558,191)"><rect class="bg" x="0.5" y="0.5" width="72" height="14" style="stroke-width: 1px; stroke: rgb(0, 0, 0); stroke-opacity: 0; fill: rgb(0, 0, 0); fill-opacity: 0;"/><text class="annotation-text" text-anchor="middle" x="36.59375" y="11" style="font-family: 'Helvetica Neue', Helvetica, Arial, sans-serif; font-size: 9px; fill: rgb(89, 89, 89); fill-opacity: 1; white-space: pre;">équilibre primaire</text></g></g></g><g class="annotation" data-index="3" style="opacity: 1;"><g class="annotation-text-g" transform="rotate(0,543.5,467.20000000000005)"><g class="cursor-pointer" transform="translate(60,450)"><rect class="bg" x="0.5" y="0.5" width="966" height="33" style="stroke-width: 1px; stroke: rgb(0, 0, 0); stroke-opacity: 0; fill: rgb(0, 0, 0); fill-opacity: 0;"/><text class="annotation-text" text-anchor="start" x="2" y="12" style="font-family: 'Helvetica Neue', Helvetica, Arial, sans-serif; font-size: 14px; fill: rgb(89, 89, 89); fill-opacity: 1; white-space: pre;"><tspan class="line" dy="0em" x="2" y="12"><tspan style="font-size:11px">Source : FMI — World Economic Outlook (dette brute GGXWDG_NGDP ; solde primaire). Extraction : 06/2026.</tspan></tspan><tspan class="line" dy="1.3em" x="2" y="12"><tspan style="font-size:11px">Lecture : France, États-Unis et Japon conjuguent dette élevée et déficits primaires persistants — le confort présent s'appuie en partie sur l'endettement (l'Italie, dans les données, partage ce profil).</tspan></tspan></text></g></g></g></g></svg>