<svg class="main-svg" xmlns="http://www.w3.org/2000/svg" xmlns:xlink="http://www.w3.org/1999/xlink" width="980" height="480" style="" viewBox="0 0 980 480"><rect x="0" y="0" width="980" height="480" style="fill: rgb(251, 249, 245); fill-opacity: 1;"/><defs id="defs-8c4372"><g class="clips"><clipPath id="clip8c4372xyplot" class="plotclip"><rect width="265.5166666666667" height="250"/></clipPath><clipPath id="clip8c4372x2y2plot" class="plotclip"><rect width="265.51666666666677" height="250"/></clipPath><clipPath id="clip8c4372x3y3plot" class="plotclip"><rect width="265.51666666666665" height="250"/></clipPath><clipPath class="axesclip" id="clip8c4372x"><rect x="55" y="0" width="265.5166666666667" height="480"/></clipPath><clipPath class="axesclip" id="clip8c4372y"><rect x="0" y="110" width="980" height="250"/></clipPath><clipPath class="axesclip" id="clip8c4372xy"><rect x="55" y="110" width="265.5166666666667" height="250"/></clipPath><clipPath class="axesclip" id="clip8c4372y2"><rect x="0" y="110" width="980" height="250"/></clipPath><clipPath class="axesclip" id="clip8c4372xy2"><rect x="55" y="110" width="265.5166666666667" height="250"/></clipPath><clipPath class="axesclip" id="clip8c4372y3"><rect x="0" y="110" width="980" height="250"/></clipPath><clipPath class="axesclip" id="clip8c4372xy3"><rect x="55" y="110" width="265.5166666666667" height="250"/></clipPath><clipPath class="axesclip" id="clip8c4372x2"><rect x="369.7416666666667" y="0" width="265.51666666666677" height="480"/></clipPath><clipPath class="axesclip" id="clip8c4372x2y"><rect x="369.7416666666667" y="110" width="265.51666666666677" height="250"/></clipPath><clipPath class="axesclip" id="clip8c4372x2y2"><rect x="369.7416666666667" y="110" width="265.51666666666677" height="250"/></clipPath><clipPath class="axesclip" id="clip8c4372x2y3"><rect x="369.7416666666667" y="110" width="265.51666666666677" height="250"/></clipPath><clipPath class="axesclip" id="clip8c4372x3"><rect x="684.4833333333333" y="0" width="265.51666666666665" height="480"/></clipPath><clipPath class="axesclip" id="clip8c4372x3y"><rect x="684.4833333333333" y="110" width="265.51666666666665" height="250"/></clipPath><clipPath class="axesclip" id="clip8c4372x3y2"><rect x="684.4833333333333" y="110" width="265.51666666666665" height="250"/></clipPath><clipPath class="axesclip" id="clip8c4372x3y3"><rect x="684.4833333333333" y="110" width="265.51666666666665" height="250"/></clipPath></g><g class="gradients"/><g class="patterns"/></defs><g class="bglayer"/><g class="layer-below"><g class="imagelayer"/><g class="shapelayer"/></g><g class="cartesianlayer"><g class="subplot xy"><g class="layer-subplot"><g class="shapelayer"/><g class="imagelayer"/></g><g class="minor-gridlayer"><g class="x"/><g class="y"/></g><g class="gridlayer"><g class="x"/><g class="y"><path class="ygrid crisp" transform="translate(0,297.5)" d="M55,0h265.5166666666667" style="stroke: rgb(226, 222, 215); stroke-opacity: 1; stroke-width: 1px;"/><path class="ygrid crisp" transform="translate(0,235)" d="M55,0h265.5166666666667" style="stroke: rgb(226, 222, 215); stroke-opacity: 1; stroke-width: 1px;"/><path class="ygrid crisp" transform="translate(0,172.5)" d="M55,0h265.5166666666667" style="stroke: rgb(226, 222, 215); stroke-opacity: 1; stroke-width: 1px;"/></g></g><g class="zerolinelayer"/><g class="layer-between"><g class="shapelayer"/><g class="imagelayer"/></g><path class="xlines-below"/><path class="ylines-below"/><g class="overlines-below"/><g class="xaxislayer-below"/><g class="yaxislayer-below"/><g class="overaxes-below"/><g class="overplot"><g class="xy" transform="translate(55,110)" clip-path="url(#clip8c4372xyplot)"><g class="scatterlayer mlayer"><g class="trace scatter trace727c9a" style="stroke-miterlimit: 2; opacity: 1;"><g class="fills"/><g class="errorbars"/><g class="lines"><path class="js-line" d="M0,52.38L16.09,56.75L24.14,60.12L32.18,62.25L40.23,65.25L56.32,66.13L64.37,62.63L72.41,61.62L80.46,55.5L88.51,58.75L96.55,59.88L104.6,56.62L112.64,56L120.69,55.38L128.74,49L136.78,47.5L144.83,53.5L160.92,71.13L168.97,75.75L177.01,77.5L185.06,80.25L193.1,79.75L201.15,82L209.19,85L217.24,91.75L225.29,96.25L233.33,99.25L241.38,107.25L249.42,104.5L257.47,105.5L265.52,110.5" style="vector-effect: none; fill: none; stroke: rgb(156, 43, 46); stroke-opacity: 1; stroke-width: 2px; opacity: 1;"/></g><g class="points"/><g class="text"/></g><g class="trace scatter trace2195ed" style="stroke-miterlimit: 2; opacity: 1;"><g class="fills"/><g class="errorbars"/><g class="lines"><path class="js-line" d="M0,91.25L8.05,93.75L16.09,95L24.14,96.25L32.18,96.25L48.28,93.75L56.32,91.25L64.37,90L72.41,86.25L80.46,76.25L88.51,75L96.55,77.5L104.6,76.25L112.64,72.5L120.69,70L128.74,62.5L136.78,65L144.83,61.25L152.87,62.5L160.92,58.75L168.97,61.25L177.01,61.25L185.06,63.75L193.1,62.5L201.15,67.5L209.19,72.5L217.24,76.25L225.29,78.75L233.33,80L241.38,85L249.42,83.75L257.47,90L265.52,105" style="vector-effect: none; fill: none; stroke: rgb(46, 94, 140); stroke-opacity: 1; stroke-width: 2px; opacity: 1;"/></g><g class="points"/><g class="text"/></g><g class="trace scatter trace6fc31e" style="stroke-miterlimit: 2; opacity: 1;"><g class="fills"/><g class="errorbars"/><g class="lines"><path class="js-line" d="M0,131.25L8.05,146.25L16.09,151.25L24.14,152.5L32.18,157.5L40.23,156.25L48.28,150L56.32,143.75L64.37,142.5L72.41,142.5L80.46,140L88.51,143.75L96.55,145L104.6,145L112.64,142.5L120.69,145L128.74,146.25L136.78,141.25L144.83,140L152.87,142.5L160.92,138.75L168.97,138.75L177.01,136.25L185.06,135L193.1,128.75L201.15,125L209.19,112.5L217.24,116.25L225.29,116.25L233.33,120L241.38,121.25L249.42,115L257.47,130.63L265.52,138.75" style="vector-effect: none; fill: none; stroke: rgb(46, 125, 91); stroke-opacity: 1; stroke-width: 2px; opacity: 1;"/></g><g class="points"/><g class="text"/></g><g class="trace scatter traceef297c" style="stroke-miterlimit: 2; opacity: 1;"><g class="fills"/><g class="errorbars"/><g class="lines"><path class="js-line" d="M0,120L8.05,121.25L16.09,125L24.14,130L32.18,125L40.23,135L48.28,133.75L56.32,138.75L64.37,140L72.41,145L80.46,142.5L88.51,146.25L96.55,147.5L104.6,151.25L112.64,151.25L120.69,155L128.74,147.5L136.78,145L144.83,141.25L152.87,141.25L160.92,138.75L168.97,138.75L177.01,136.25L185.06,133.75L193.1,135L201.15,131.25L209.19,132.5L225.29,135L233.33,142.5L249.42,150L257.47,155L265.52,162.5" style="vector-effect: none; fill: none; stroke: rgb(110, 90, 140); stroke-opacity: 1; stroke-width: 2px; opacity: 1;"/></g><g class="points"/><g class="text"/></g><g class="trace scatter tracedd156b" style="stroke-miterlimit: 2; opacity: 1;"><g class="fills"/><g class="errorbars"/><g class="lines"><path class="js-line" d="M0,116.25L8.05,98.75L16.09,92.5L24.14,105.75L32.18,105.5L40.23,108.25L48.28,115.75L56.32,120.38L64.37,129.5L72.41,134.38L80.46,127.5L88.51,148.88L96.55,165.25L104.6,163.63L112.64,167L120.69,176.88L128.74,171L136.78,155.13L144.83,163.5L152.87,168.88L160.92,159.25L168.97,157L177.01,150.38L185.06,164.13L193.1,161.88L201.15,157.63L209.19,166L217.24,181L225.29,190.38L233.33,197.75L241.38,207.88L257.47,215.25L265.52,222.38" style="vector-effect: none; fill: none; stroke: rgb(199, 123, 48); stroke-opacity: 1; stroke-width: 2px; opacity: 1;"/></g><g class="points"/><g class="text"/></g><g class="trace scatter trace9ca09b" style="stroke-miterlimit: 2; opacity: 1;"><g class="fills"/><g class="errorbars"/><g class="lines"><path class="js-line" d="M0,-1.75L8.05,70.75L16.09,90.5L24.14,101.13L32.18,109L48.28,118.25L56.32,121.63L64.37,122.25L72.41,121.25L80.46,109L88.51,117.13L104.6,116.25L112.64,111.88L136.78,104.25L144.83,99.88L152.87,98.25L160.92,101.63L168.97,104L177.01,87.75L185.06,98.25L193.1,91.38L201.15,103.75L209.19,91L217.24,88.13L225.29,120.13L233.33,125.5L241.38,158L249.42,172.88L257.47,183.25L265.52,187.63" style="vector-effect: none; fill: none; stroke: rgb(201, 162, 39); stroke-opacity: 1; stroke-width: 2px; opacity: 1;"/></g><g class="points"/><g class="text"/></g></g></g></g><g class="zerolinelayer-above"/><path class="xlines-above crisp" d="" style="fill: none; stroke-width: 1px; stroke: rgb(0, 0, 0); stroke-opacity: 0;"/><path class="ylines-above crisp" d="M0,0" style="fill: none;"/><g class="overlines-above"/><g class="xaxislayer-above"><path class="xtick ticks crisp" d="M0,361v5" transform="translate(55,0)" style="stroke: rgb(226, 222, 215); stroke-opacity: 1; stroke-width: 1px;"/><path class="xtick ticks crisp" d="M0,361v5" transform="translate(135.45999999999998,0)" style="stroke: rgb(226, 222, 215); stroke-opacity: 1; stroke-width: 1px;"/><path class="xtick ticks crisp" d="M0,361v5" transform="translate(215.92,0)" style="stroke: rgb(226, 222, 215); stroke-opacity: 1; stroke-width: 1px;"/><path class="xtick ticks crisp" d="M0,361v5" transform="translate(296.38,0)" style="stroke: rgb(226, 222, 215); stroke-opacity: 1; stroke-width: 1px;"/><g class="xtick"><text text-anchor="middle" x="0" y="380.4" transform="translate(55,0)" style="font-family: 'Helvetica Neue', Helvetica, Arial, sans-serif; font-size: 12px; fill: rgb(89, 89, 89); fill-opacity: 1; white-space: pre;">1990</text></g><g class="xtick"><text text-anchor="middle" x="0" y="380.4" style="font-family: 'Helvetica Neue', Helvetica, Arial, sans-serif; font-size: 12px; fill: rgb(89, 89, 89); fill-opacity: 1; white-space: pre;" transform="translate(135.45999999999998,0)">2000</text></g><g class="xtick"><text text-anchor="middle" x="0" y="380.4" style="font-family: 'Helvetica Neue', Helvetica, Arial, sans-serif; font-size: 12px; fill: rgb(89, 89, 89); fill-opacity: 1; white-space: pre;" transform="translate(215.92,0)">2010</text></g><g class="xtick"><text text-anchor="middle" x="0" y="380.4" style="font-family: 'Helvetica Neue', Helvetica, Arial, sans-serif; font-size: 12px; fill: rgb(89, 89, 89); fill-opacity: 1; white-space: pre;" transform="translate(296.38,0)">2020</text></g></g><g class="yaxislayer-above"><g class="ytick"><text text-anchor="end" x="54" y="4.199999999999999" transform="translate(0,360)" style="font-family: 'Helvetica Neue', Helvetica, Arial, sans-serif; font-size: 12px; fill: rgb(89, 89, 89); fill-opacity: 1; white-space: pre;">0,5</text></g><g class="ytick"><text text-anchor="end" x="54" y="4.199999999999999" style="font-family: 'Helvetica Neue', Helvetica, Arial, sans-serif; font-size: 12px; fill: rgb(89, 89, 89); fill-opacity: 1; white-space: pre;" transform="translate(0,297.5)">1</text></g><g class="ytick"><text text-anchor="end" x="54" y="4.199999999999999" style="font-family: 'Helvetica Neue', Helvetica, Arial, sans-serif; font-size: 12px; fill: rgb(89, 89, 89); fill-opacity: 1; white-space: pre;" transform="translate(0,235)">1,5</text></g><g class="ytick"><text text-anchor="end" x="54" y="4.199999999999999" style="font-family: 'Helvetica Neue', Helvetica, Arial, sans-serif; font-size: 12px; fill: rgb(89, 89, 89); fill-opacity: 1; white-space: pre;" transform="translate(0,172.5)">2</text></g><g class="ytick"><text text-anchor="end" x="54" y="4.199999999999999" style="font-family: 'Helvetica Neue', Helvetica, Arial, sans-serif; font-size: 12px; fill: rgb(89, 89, 89); fill-opacity: 1; white-space: pre;" transform="translate(0,110)">2,5</text></g></g><g class="overaxes-above"/></g><g class="subplot x2y2"><g class="layer-subplot"><g class="shapelayer"/><g class="imagelayer"/></g><g class="minor-gridlayer"><g class="x2"/><g class="y2"/></g><g class="gridlayer"><g class="x2"/><g class="y2"><path class="y2grid crisp" transform="translate(0,318.33000000000004)" d="M369.7416666666667,0h265.51666666666677" style="stroke: rgb(226, 222, 215); stroke-opacity: 1; stroke-width: 1px;"/><path class="y2grid crisp" transform="translate(0,276.66999999999996)" d="M369.7416666666667,0h265.51666666666677" style="stroke: rgb(226, 222, 215); stroke-opacity: 1; stroke-width: 1px;"/><path class="y2grid crisp" transform="translate(0,235)" d="M369.7416666666667,0h265.51666666666677" style="stroke: rgb(226, 222, 215); stroke-opacity: 1; stroke-width: 1px;"/><path class="y2grid crisp" transform="translate(0,193.32999999999998)" d="M369.7416666666667,0h265.51666666666677" style="stroke: rgb(226, 222, 215); stroke-opacity: 1; stroke-width: 1px;"/><path class="y2grid crisp" transform="translate(0,151.67000000000002)" d="M369.7416666666667,0h265.51666666666677" style="stroke: rgb(226, 222, 215); stroke-opacity: 1; stroke-width: 1px;"/></g></g><g class="zerolinelayer"/><g class="layer-between"><g class="shapelayer"/><g class="imagelayer"/></g><path class="xlines-below"/><path class="ylines-below"/><g class="overlines-below"/><g class="xaxislayer-below"/><g class="yaxislayer-below"/><g class="overaxes-below"/><g class="overplot"><g class="x2y2" transform="translate(369.7416666666667,110)" clip-path="url(#clip8c4372x2y2plot)"><g class="scatterlayer mlayer"><g class="trace scatter trace7a15b8" style="stroke-miterlimit: 2; opacity: 1;"><g class="fills"/><g class="errorbars"/><g class="lines"><path class="js-line" d="M0,182.08L11.54,187.17L23.09,195.5L34.63,194.83L46.18,190.58L57.72,183.92L69.27,183L80.81,189L92.35,198L103.9,218.25L115.44,222.42L126.99,218.83L138.53,212.42L150.07,210L161.62,204.25L173.16,202.08L184.71,201.67L207.8,196.5L219.34,195.92L230.88,192.58L242.43,194.83L265.52,193.92" style="vector-effect: none; fill: none; stroke: rgb(156, 43, 46); stroke-opacity: 1; stroke-width: 2px; opacity: 1;"/></g><g class="points"/><g class="text"/></g><g class="trace scatter trace759daa" style="stroke-miterlimit: 2; opacity: 1;"><g class="fills"/><g class="errorbars"/><g class="lines"><path class="js-line" d="M0,201L11.54,201.17L23.09,205.5L34.63,204.17L46.18,201.33L57.72,197.83L69.27,192.5L80.81,186.75L92.35,183.92L103.9,196.25L115.44,196L126.99,194.17L138.53,194.5L173.16,203.67L184.71,200.67L219.34,188.17L230.88,188L242.43,179.33L253.97,179.25L265.52,184.75" style="vector-effect: none; fill: none; stroke: rgb(46, 94, 140); stroke-opacity: 1; stroke-width: 2px; opacity: 1;"/></g><g class="points"/><g class="text"/></g><g class="trace scatter traceff8d57" style="stroke-miterlimit: 2; opacity: 1;"><g class="fills"/><g class="errorbars"/><g class="lines"><path class="js-line" d="M0,184.33L11.54,195.5L23.09,209.25L34.63,214.5L46.18,218.08L57.72,218.67L69.27,212.83L92.35,208.67L103.9,218L115.44,215.08L126.99,208.25L138.53,208.58L150.07,211.83L161.62,210.17L173.16,210.42L184.71,208L196.25,207.25L207.8,201.5L219.34,198.75L230.88,197.17L242.43,198.5L253.97,195L265.52,198.42" style="vector-effect: none; fill: none; stroke: rgb(46, 125, 91); stroke-opacity: 1; stroke-width: 2px; opacity: 1;"/></g><g class="points"/><g class="text"/></g><g class="trace scatter trace31b104" style="stroke-miterlimit: 2; opacity: 1;"><g class="fills"/><g class="errorbars"/><g class="lines"><path class="js-line" d="M0,137.58L11.54,143.92L23.09,156.17L34.63,160.75L46.18,164L57.72,159.17L69.27,158L80.81,163.25L92.35,164.25L103.9,178.17L115.44,186.5L126.99,180.42L138.53,176.92L150.07,170.33L161.62,166L173.16,166.92L184.71,168.67L219.34,162.08L230.88,162.75L242.43,162.08L253.97,156.17L265.52,158.25" style="vector-effect: none; fill: none; stroke: rgb(110, 90, 140); stroke-opacity: 1; stroke-width: 2px; opacity: 1;"/></g><g class="points"/><g class="text"/></g><g class="trace scatter tracefb97f8" style="stroke-miterlimit: 2; opacity: 1;"><g class="fills"/><g class="errorbars"/><g class="lines"><path class="js-line" d="M0,112.5L11.54,120.75L23.09,123.42L34.63,116.08L46.18,117.42L57.72,121.17L69.27,120.83L80.81,124.42L92.35,117.58L103.9,117.58L115.44,121.17L126.99,120.17L138.53,126.17L150.07,131.42L161.62,131.75L173.16,131.83L184.71,126.08L196.25,110.83L207.8,120.92L219.34,124.08L230.88,116.33L253.97,108.92L265.52,112.92" style="vector-effect: none; fill: none; stroke: rgb(199, 123, 48); stroke-opacity: 1; stroke-width: 2px; opacity: 1;"/></g><g class="points"/><g class="text"/></g><g class="trace scatter tracebbc98f" style="stroke-miterlimit: 2; opacity: 1;"><g class="fills"/><g class="errorbars"/><g class="lines"><path class="js-line" d="M0,102.92L11.54,96.17L23.09,83.42L34.63,57.67L46.18,47.08L57.72,47.75L69.27,54L80.81,61.08L92.35,51.67L103.9,13.25L115.44,12.33L126.99,12.33L138.53,9.42L150.07,7.67L161.62,13.5L173.16,28.17L184.71,32.67L196.25,29.83L207.8,21.83L219.34,22.92L230.88,26.25L242.43,30.42L253.97,31.42L265.52,37.92" style="vector-effect: none; fill: none; stroke: rgb(201, 162, 39); stroke-opacity: 1; stroke-width: 2px; opacity: 1;"/></g><g class="points"/><g class="text"/></g></g></g></g><g class="zerolinelayer-above"/><path class="xlines-above crisp" d="" style="fill: none; stroke-width: 1px; stroke: rgb(0, 0, 0); stroke-opacity: 0;"/><path class="ylines-above crisp" d="M0,0" style="fill: none;"/><g class="overlines-above"/><g class="xaxislayer-above"><path class="x2tick ticks crisp" d="M0,361v5" transform="translate(369.7416666666667,0)" style="stroke: rgb(226, 222, 215); stroke-opacity: 1; stroke-width: 1px;"/><path class="x2tick ticks crisp" d="M0,361v5" transform="translate(485.1816666666667,0)" style="stroke: rgb(226, 222, 215); stroke-opacity: 1; stroke-width: 1px;"/><path class="x2tick ticks crisp" d="M0,361v5" transform="translate(600.6216666666667,0)" style="stroke: rgb(226, 222, 215); stroke-opacity: 1; stroke-width: 1px;"/><g class="x2tick"><text text-anchor="middle" x="0" y="380.4" transform="translate(369.7416666666667,0)" style="font-family: 'Helvetica Neue', Helvetica, Arial, sans-serif; font-size: 12px; fill: rgb(89, 89, 89); fill-opacity: 1; white-space: pre;">2000</text></g><g class="x2tick"><text text-anchor="middle" x="0" y="380.4" style="font-family: 'Helvetica Neue', Helvetica, Arial, sans-serif; font-size: 12px; fill: rgb(89, 89, 89); fill-opacity: 1; white-space: pre;" transform="translate(485.1816666666667,0)">2010</text></g><g class="x2tick"><text text-anchor="middle" x="0" y="380.4" style="font-family: 'Helvetica Neue', Helvetica, Arial, sans-serif; font-size: 12px; fill: rgb(89, 89, 89); fill-opacity: 1; white-space: pre;" transform="translate(600.6216666666667,0)">2020</text></g></g><g class="yaxislayer-above"><g class="y2tick"><text text-anchor="end" x="368.7416666666667" y="4.199999999999999" transform="translate(0,360)" style="font-family: 'Helvetica Neue', Helvetica, Arial, sans-serif; font-size: 12px; fill: rgb(89, 89, 89); fill-opacity: 1; white-space: pre;">15</text></g><g class="y2tick"><text text-anchor="end" x="368.7416666666667" y="4.199999999999999" style="font-family: 'Helvetica Neue', Helvetica, Arial, sans-serif; font-size: 12px; fill: rgb(89, 89, 89); fill-opacity: 1; white-space: pre;" transform="translate(0,318.33000000000004)">20</text></g><g class="y2tick"><text text-anchor="end" x="368.7416666666667" y="4.199999999999999" style="font-family: 'Helvetica Neue', Helvetica, Arial, sans-serif; font-size: 12px; fill: rgb(89, 89, 89); fill-opacity: 1; white-space: pre;" transform="translate(0,276.66999999999996)">25</text></g><g class="y2tick"><text text-anchor="end" x="368.7416666666667" y="4.199999999999999" style="font-family: 'Helvetica Neue', Helvetica, Arial, sans-serif; font-size: 12px; fill: rgb(89, 89, 89); fill-opacity: 1; white-space: pre;" transform="translate(0,235)">30</text></g><g class="y2tick"><text text-anchor="end" x="368.7416666666667" y="4.199999999999999" style="font-family: 'Helvetica Neue', Helvetica, Arial, sans-serif; font-size: 12px; fill: rgb(89, 89, 89); fill-opacity: 1; white-space: pre;" transform="translate(0,193.32999999999998)">35</text></g><g class="y2tick"><text text-anchor="end" x="368.7416666666667" y="4.199999999999999" style="font-family: 'Helvetica Neue', Helvetica, Arial, sans-serif; font-size: 12px; fill: rgb(89, 89, 89); fill-opacity: 1; white-space: pre;" transform="translate(0,151.67000000000002)">40</text></g><g class="y2tick"><text text-anchor="end" x="368.7416666666667" y="4.199999999999999" style="font-family: 'Helvetica Neue', Helvetica, Arial, sans-serif; font-size: 12px; fill: rgb(89, 89, 89); fill-opacity: 1; white-space: pre;" transform="translate(0,110)">45</text></g></g><g class="overaxes-above"/></g><g class="subplot x3y3"><g class="layer-subplot"><g class="shapelayer"/><g class="imagelayer"/></g><g class="minor-gridlayer"><g class="x3"/><g class="y3"/></g><g class="gridlayer"><g class="x3"/><g class="y3"><path class="y3grid crisp" transform="translate(0,332.22)" d="M684.4833333333333,0h265.51666666666665" style="stroke: rgb(226, 222, 215); stroke-opacity: 1; stroke-width: 1px;"/><path class="y3grid crisp" transform="translate(0,276.66999999999996)" d="M684.4833333333333,0h265.51666666666665" style="stroke: rgb(226, 222, 215); stroke-opacity: 1; stroke-width: 1px;"/><path class="y3grid crisp" transform="translate(0,221.11)" d="M684.4833333333333,0h265.51666666666665" style="stroke: rgb(226, 222, 215); stroke-opacity: 1; stroke-width: 1px;"/><path class="y3grid crisp" transform="translate(0,165.56)" d="M684.4833333333333,0h265.51666666666665" style="stroke: rgb(226, 222, 215); stroke-opacity: 1; stroke-width: 1px;"/></g></g><g class="zerolinelayer"/><g class="layer-between"><g class="shapelayer"/><g class="imagelayer"/></g><path class="xlines-below"/><path class="ylines-below"/><g class="overlines-below"/><g class="xaxislayer-below"/><g class="yaxislayer-below"/><g class="overaxes-below"/><g class="overplot"><g class="x3y3" transform="translate(684.4833333333333,110)" clip-path="url(#clip8c4372x3y3plot)"><g class="scatterlayer mlayer"><g class="trace scatter traced1f52f" style="stroke-miterlimit: 2; opacity: 1;"><g class="fills"/><g class="errorbars"/><g class="lines"><path class="js-line" d="M0,104.89L11.54,104.22L23.09,86.22L34.63,65.17L46.18,54.67L57.72,50.61L69.27,53.28L80.81,51.5L92.35,30.72L103.9,6.89L115.44,5.33L126.99,9.89L138.53,29.89L150.07,54.22L161.62,73.39L173.16,85.33L184.71,88.72L196.25,94.56L207.8,94.22L219.34,88.39L230.88,75.28L242.43,88.61L253.97,93.94L265.52,94.22" style="vector-effect: none; fill: none; stroke: rgb(156, 43, 46); stroke-opacity: 1; stroke-width: 2px; opacity: 1;"/></g><g class="points"/><g class="text"/></g><g class="trace scatter traced65336" style="stroke-miterlimit: 2; opacity: 1;"><g class="fills"/><g class="errorbars"/><g class="lines"><path class="js-line" d="M0,161.56L11.54,164.39L23.09,163.39L34.63,160.78L46.18,160.33L57.72,165.11L69.27,167.94L80.81,171.61L92.35,172.28L103.9,161.17L115.44,168.39L126.99,172.89L138.53,173.78L150.07,175.17L161.62,174.44L173.16,173.89L184.71,174.89L219.34,174.83L230.88,165.44L242.43,167.78L253.97,169L265.52,169.39" style="vector-effect: none; fill: none; stroke: rgb(46, 94, 140); stroke-opacity: 1; stroke-width: 2px; opacity: 1;"/></g><g class="points"/><g class="text"/></g><g class="trace scatter trace96e1ed" style="stroke-miterlimit: 2; opacity: 1;"><g class="fills"/><g class="errorbars"/><g class="lines"><path class="js-line" d="M0,203.11L11.54,205.11L23.09,204.83L34.63,205.61L46.18,208.28L57.72,209.28L69.27,212.28L80.81,213.72L92.35,211.72L103.9,206.39L115.44,208.78L126.99,212.11L138.53,210.17L150.07,213.22L161.62,215.11L173.16,215.83L184.71,215.06L196.25,214.94L207.8,214L219.34,208.89L230.88,202.44L242.43,205.56L253.97,202.78L265.52,195.11" style="vector-effect: none; fill: none; stroke: rgb(46, 125, 91); stroke-opacity: 1; stroke-width: 2px; opacity: 1;"/></g><g class="points"/><g class="text"/></g><g class="trace scatter trace3ce5c4" style="stroke-miterlimit: 2; opacity: 1;"><g class="fills"/><g class="errorbars"/><g class="lines"><path class="js-line" d="M0,226.89L23.09,225.56L34.63,225.56L80.81,228.61L92.35,227.33L103.9,223.72L115.44,225.06L126.99,223.61L138.53,224.61L150.07,225.5L161.62,224.56L196.25,227.06L207.8,224.33L230.88,221.28L242.43,218.67L253.97,221.67L265.52,214.44" style="vector-effect: none; fill: none; stroke: rgb(110, 90, 140); stroke-opacity: 1; stroke-width: 2px; opacity: 1;"/></g><g class="points"/><g class="text"/></g><g class="trace scatter tracecfb3cb" style="stroke-miterlimit: 2; opacity: 1;"><g class="fills"/><g class="errorbars"/><g class="lines"><path class="js-line" d="M0,149.44L11.54,151.11L23.09,157.28L34.63,156.94L46.18,157.44L57.72,151.11L69.27,150.06L80.81,151.61L92.35,145.06L103.9,138.89L115.44,146.61L161.62,143.72L173.16,145.78L196.25,150.11L207.8,146.56L219.34,137.83L230.88,130.94L242.43,132.28L253.97,134.67L265.52,133.39" style="vector-effect: none; fill: none; stroke: rgb(199, 123, 48); stroke-opacity: 1; stroke-width: 2px; opacity: 1;"/></g><g class="points"/><g class="text"/></g><g class="trace scatter trace246d97" style="stroke-miterlimit: 2; opacity: 1;"><g class="fills"/><g class="errorbars"/><g class="lines"><path class="js-line" d="M0,175.78L11.54,167.61L23.09,163.39L57.72,173.78L69.27,173.89L80.81,180.56L92.35,182.44L103.9,172.56L115.44,181.44L126.99,185.61L138.53,183.28L161.62,181.22L173.16,179.06L184.71,179.5L196.25,182.72L207.8,184.78L219.34,184.28L230.88,180.17L242.43,188.61L265.52,185.28" style="vector-effect: none; fill: none; stroke: rgb(201, 162, 39); stroke-opacity: 1; stroke-width: 2px; opacity: 1;"/></g><g class="points"/><g class="text"/></g></g></g></g><g class="zerolinelayer-above"/><path class="xlines-above crisp" d="" style="fill: none; stroke-width: 1px; stroke: rgb(0, 0, 0); stroke-opacity: 0;"/><path class="ylines-above crisp" d="M0,0" style="fill: none;"/><g class="overlines-above"/><g class="xaxislayer-above"><path class="x3tick ticks crisp" d="M0,361v5" transform="translate(684.4833333333333,0)" style="stroke: rgb(226, 222, 215); stroke-opacity: 1; stroke-width: 1px;"/><path class="x3tick ticks crisp" d="M0,361v5" transform="translate(799.9233333333334,0)" style="stroke: rgb(226, 222, 215); stroke-opacity: 1; stroke-width: 1px;"/><path class="x3tick ticks crisp" d="M0,361v5" transform="translate(915.3633333333333,0)" style="stroke: rgb(226, 222, 215); stroke-opacity: 1; stroke-width: 1px;"/><g class="x3tick"><text text-anchor="middle" x="0" y="380.4" transform="translate(684.4833333333333,0)" style="font-family: 'Helvetica Neue', Helvetica, Arial, sans-serif; font-size: 12px; fill: rgb(89, 89, 89); fill-opacity: 1; white-space: pre;">2000</text></g><g class="x3tick"><text text-anchor="middle" x="0" y="380.4" style="font-family: 'Helvetica Neue', Helvetica, Arial, sans-serif; font-size: 12px; fill: rgb(89, 89, 89); fill-opacity: 1; white-space: pre;" transform="translate(799.9233333333334,0)">2010</text></g><g class="x3tick"><text text-anchor="middle" x="0" y="380.4" style="font-family: 'Helvetica Neue', Helvetica, Arial, sans-serif; font-size: 12px; fill: rgb(89, 89, 89); fill-opacity: 1; white-space: pre;" transform="translate(915.3633333333333,0)">2020</text></g></g><g class="yaxislayer-above"><g class="y3tick"><text text-anchor="end" x="683.4833333333333" y="4.199999999999999" transform="translate(0,332.22)" style="font-family: 'Helvetica Neue', Helvetica, Arial, sans-serif; font-size: 12px; fill: rgb(89, 89, 89); fill-opacity: 1; white-space: pre;">1</text></g><g class="y3tick"><text text-anchor="end" x="683.4833333333333" y="4.199999999999999" style="font-family: 'Helvetica Neue', Helvetica, Arial, sans-serif; font-size: 12px; fill: rgb(89, 89, 89); fill-opacity: 1; white-space: pre;" transform="translate(0,276.66999999999996)">2</text></g><g class="y3tick"><text text-anchor="end" x="683.4833333333333" y="4.199999999999999" style="font-family: 'Helvetica Neue', Helvetica, Arial, sans-serif; font-size: 12px; fill: rgb(89, 89, 89); fill-opacity: 1; white-space: pre;" transform="translate(0,221.11)">3</text></g><g class="y3tick"><text text-anchor="end" x="683.4833333333333" y="4.199999999999999" style="font-family: 'Helvetica Neue', Helvetica, Arial, sans-serif; font-size: 12px; fill: rgb(89, 89, 89); fill-opacity: 1; white-space: pre;" transform="translate(0,165.56)">4</text></g><g class="y3tick"><text text-anchor="end" x="683.4833333333333" y="4.199999999999999" style="font-family: 'Helvetica Neue', Helvetica, Arial, sans-serif; font-size: 12px; fill: rgb(89, 89, 89); fill-opacity: 1; white-space: pre;" transform="translate(0,110)">5</text></g></g><g class="overaxes-above"/></g></g><g class="polarlayer"/><g class="smithlayer"/><g class="ternarylayer"/><g class="geolayer"/><g class="funnelarealayer"/><g class="pielayer"/><g class="iciclelayer"/><g class="treemaplayer"/><g class="sunburstlayer"/><g class="glimages"/><defs id="topdefs-8c4372"><g class="clips"/><clipPath id="legend8c4372"><rect width="559" height="29" x="0" y="0"/></clipPath></defs><g class="layer-above"><g class="imagelayer"/><g class="shapelayer"><g class="shape-group" data-index="0" clip-path="url(#clip8c4372y)"><path data-index="0" fill-rule="evenodd" d="M55,160L320.5166666666667,160" style="opacity: 1; stroke: rgb(156, 43, 46); stroke-opacity: 1; fill: rgb(0, 0, 0); fill-opacity: 0; stroke-dasharray: 3px, 3px; stroke-width: 1px;"/></g><g class="shape-group" data-index="1" clip-path="url(#clip8c4372y3)"><path data-index="1" fill-rule="evenodd" d="M684.4833333333333,276.66999999999996L950,276.66999999999996" style="opacity: 1; stroke: rgb(156, 43, 46); stroke-opacity: 1; fill: rgb(0, 0, 0); fill-opacity: 0; stroke-dasharray: 3px, 3px; stroke-width: 1px;"/></g></g></g><g class="infolayer"><g class="legend" pointer-events="all" transform="translate(223,400)"><rect class="bg" shape-rendering="crispEdges" style="stroke: rgb(68, 68, 68); stroke-opacity: 1; fill: rgb(0, 0, 0); fill-opacity: 0; stroke-width: 0px;" width="559" height="29" x="0" y="0"/><g class="scrollbox" transform="" clip-path="url(#legend8c4372)"><g class="groups" transform=""><g class="traces" transform="translate(0,14.5)" style="opacity: 1;"><text class="legendtext" text-anchor="start" x="40" y="4.680000000000001" style="font-family: 'Helvetica Neue', Helvetica, Arial, sans-serif; font-size: 12px; fill: rgb(26, 26, 26); fill-opacity: 1; white-space: pre;">États-Unis</text><g class="layers" style="opacity: 1;"><g class="legendfill"/><g class="legendlines"><path class="js-line" d="M5,0h30" style="fill: none; stroke: rgb(156, 43, 46); stroke-opacity: 1; stroke-width: 2px;"/></g><g class="legendsymbols"><g class="legendpoints"/></g></g><rect class="legendtoggle" x="0" y="-9.5" width="98.515625" height="19" style="fill: rgb(0, 0, 0); fill-opacity: 0;"/></g></g><g class="groups" transform="translate(101.015625,0)"><g class="traces" transform="translate(0,14.5)" style="opacity: 1;"><text class="legendtext" text-anchor="start" x="40" y="4.680000000000001" style="font-family: 'Helvetica Neue', Helvetica, Arial, sans-serif; font-size: 12px; fill: rgb(26, 26, 26); fill-opacity: 1; white-space: pre;">France</text><g class="layers" style="opacity: 1;"><g class="legendfill"/><g class="legendlines"><path class="js-line" d="M5,0h30" style="fill: none; stroke: rgb(46, 94, 140); stroke-opacity: 1; stroke-width: 2px;"/></g><g class="legendsymbols"><g class="legendpoints"/></g></g><rect class="legendtoggle" x="0" y="-9.5" width="79.390625" height="19" style="fill: rgb(0, 0, 0); fill-opacity: 0;"/></g></g><g class="groups" transform="translate(182.90625,0)"><g class="traces" transform="translate(0,14.5)" style="opacity: 1;"><text class="legendtext" text-anchor="start" x="40" y="4.680000000000001" style="font-family: 'Helvetica Neue', Helvetica, Arial, sans-serif; font-size: 12px; fill: rgb(26, 26, 26); fill-opacity: 1; white-space: pre;">Allemagne</text><g class="layers" style="opacity: 1;"><g class="legendfill"/><g class="legendlines"><path class="js-line" d="M5,0h30" style="fill: none; stroke: rgb(46, 125, 91); stroke-opacity: 1; stroke-width: 2px;"/></g><g class="legendsymbols"><g class="legendpoints"/></g></g><rect class="legendtoggle" x="0" y="-9.5" width="98.806640625" height="19" style="fill: rgb(0, 0, 0); fill-opacity: 0;"/></g></g><g class="groups" transform="translate(284.212890625,0)"><g class="traces" transform="translate(0,14.5)" style="opacity: 1;"><text class="legendtext" text-anchor="start" x="40" y="4.680000000000001" style="font-family: 'Helvetica Neue', Helvetica, Arial, sans-serif; font-size: 12px; fill: rgb(26, 26, 26); fill-opacity: 1; white-space: pre;">Japon</text><g class="layers" style="opacity: 1;"><g class="legendfill"/><g class="legendlines"><path class="js-line" d="M5,0h30" style="fill: none; stroke: rgb(110, 90, 140); stroke-opacity: 1; stroke-width: 2px;"/></g><g class="legendsymbols"><g class="legendpoints"/></g></g><rect class="legendtoggle" x="0" y="-9.5" width="75.859375" height="19" style="fill: rgb(0, 0, 0); fill-opacity: 0;"/></g></g><g class="groups" transform="translate(362.572265625,0)"><g class="traces" transform="translate(0,14.5)" style="opacity: 1;"><text class="legendtext" text-anchor="start" x="40" y="4.680000000000001" style="font-family: 'Helvetica Neue', Helvetica, Arial, sans-serif; font-size: 12px; fill: rgb(26, 26, 26); fill-opacity: 1; white-space: pre;">Corée du Sud</text><g class="layers" style="opacity: 1;"><g class="legendfill"/><g class="legendlines"><path class="js-line" d="M5,0h30" style="fill: none; stroke: rgb(199, 123, 48); stroke-opacity: 1; stroke-width: 2px;"/></g><g class="legendsymbols"><g class="legendpoints"/></g></g><rect class="legendtoggle" x="0" y="-9.5" width="116.96875" height="19" style="fill: rgb(0, 0, 0); fill-opacity: 0;"/></g></g><g class="groups" transform="translate(482.041015625,0)"><g class="traces" transform="translate(0,14.5)" style="opacity: 1;"><text class="legendtext" text-anchor="start" x="40" y="4.680000000000001" style="font-family: 'Helvetica Neue', Helvetica, Arial, sans-serif; font-size: 12px; fill: rgb(26, 26, 26); fill-opacity: 1; white-space: pre;">Chine</text><g class="layers" style="opacity: 1;"><g class="legendfill"/><g class="legendlines"><path class="js-line" d="M5,0h30" style="fill: none; stroke: rgb(201, 162, 39); stroke-opacity: 1; stroke-width: 2px;"/></g><g class="legendsymbols"><g class="legendpoints"/></g></g><rect class="legendtoggle" x="0" y="-9.5" width="73.625" height="19" style="fill: rgb(0, 0, 0); fill-opacity: 0;"/></g></g></g><rect class="scrollbar" rx="20" ry="3" width="0" height="0" style="fill: rgb(128, 139, 164); fill-opacity: 1;" x="0" y="0"/></g><g class="g-gtitle"><text class="gtitle" x="11.76" y="19.200000000000045" text-anchor="start" dy="0.7em" style="opacity: 1; font-family: 'Helvetica Neue', Helvetica, Arial, sans-serif; font-size: 19px; fill: rgb(26, 26, 26); fill-opacity: 1; white-space: pre;"><tspan class="line" dy="0em" x="11.76" y="19.200000000000045"><tspan style="font-weight:bold">Trois arbitrages entre présent et avenir</tspan></tspan><tspan class="line" dy="1.3em" x="11.76" y="19.200000000000045"><tspan style="font-size:13px; fill:#595959">Faire des enfants, investir, se défendre : l'effort tourné vers le futur, par pays</tspan></tspan></text></g><g class="g-xtitle"/><g class="g-x2title"/><g class="g-x3title"/><g class="g-ytitle"/><g class="g-y2title"/><g class="g-y3title"/><g class="annotation" data-index="0" style="opacity: 1;"><g class="annotation-text-g" transform="rotate(0,187.75833333333335,99)"><g class="cursor-pointer" transform="translate(77,88)"><rect class="bg" x="0.5" y="0.5" width="221" height="21" style="stroke-width: 1px; stroke: rgb(0, 0, 0); stroke-opacity: 0; fill: rgb(0, 0, 0); fill-opacity: 0;"/><text class="annotation-text" text-anchor="middle" x="111.0703125" y="17" style="font-family: 'Helvetica Neue', Helvetica, Arial, sans-serif; font-size: 16px; fill: rgb(26, 26, 26); fill-opacity: 1; white-space: pre;">Fécondité (enfants par femme)</text></g></g></g><g class="annotation" data-index="1" style="opacity: 1;"><g class="annotation-text-g" transform="rotate(0,502.5,99)"><g class="cursor-pointer" transform="translate(374,88)"><rect class="bg" x="0.5" y="0.5" width="257" height="21" style="stroke-width: 1px; stroke: rgb(0, 0, 0); stroke-opacity: 0; fill: rgb(0, 0, 0); fill-opacity: 0;"/><text class="annotation-text" text-anchor="middle" x="129.1328125" y="17" style="font-family: 'Helvetica Neue', Helvetica, Arial, sans-serif; font-size: 16px; fill: rgb(26, 26, 26); fill-opacity: 1; white-space: pre;">Investissement — FBCF (% du PIB)</text></g></g></g><g class="annotation" data-index="2" style="opacity: 1;"><g class="annotation-text-g" transform="rotate(0,817.2416666666667,99)"><g class="cursor-pointer" transform="translate(697,88)"><rect class="bg" x="0.5" y="0.5" width="240" height="21" style="stroke-width: 1px; stroke: rgb(0, 0, 0); stroke-opacity: 0; fill: rgb(0, 0, 0); fill-opacity: 0;"/><text class="annotation-text" text-anchor="middle" x="120.3984375" y="17" style="font-family: 'Helvetica Neue', Helvetica, Arial, sans-serif; font-size: 16px; fill: rgb(26, 26, 26); fill-opacity: 1; white-space: pre;">Dépenses de défense (% du PIB)</text></g></g></g><g class="annotation" data-index="3" style="opacity: 1;"><g class="annotation-text-g" transform="rotate(0,160.78,145)"><g class="cursor-pointer" transform="translate(103,138)"><rect class="bg" x="0.5" y="0.5" width="114" height="14" style="stroke-width: 1px; stroke: rgb(0, 0, 0); stroke-opacity: 0; fill: rgb(0, 0, 0); fill-opacity: 0;"/><text class="annotation-text" text-anchor="middle" x="57.359375" y="11" style="font-family: 'Helvetica Neue', Helvetica, Arial, sans-serif; font-size: 9px; fill: rgb(156, 43, 46); fill-opacity: 1; white-space: pre;">seuil de remplacement (2,1)</text></g></g></g><g class="annotation" data-index="4" style="opacity: 1;"><g class="annotation-text-g" transform="rotate(0,755.6133333333333,268.33000000000004)"><g class="cursor-pointer" transform="translate(719,261)"><rect class="bg" x="0.5" y="0.5" width="72" height="14" style="stroke-width: 1px; stroke: rgb(0, 0, 0); stroke-opacity: 0; fill: rgb(0, 0, 0); fill-opacity: 0;"/><text class="annotation-text" text-anchor="middle" x="36.34375" y="11" style="font-family: 'Helvetica Neue', Helvetica, Arial, sans-serif; font-size: 9px; fill: rgb(156, 43, 46); fill-opacity: 1; white-space: pre;">cible OTAN (2 %)</text></g></g></g><g class="annotation" data-index="5" style="opacity: 1;"><g class="annotation-text-g" transform="rotate(0,595.5,437.00000000000006)"><g class="cursor-pointer" transform="translate(55,420)"><rect class="bg" x="0.5" y="0.5" width="1080" height="33" style="stroke-width: 1px; stroke: rgb(0, 0, 0); stroke-opacity: 0; fill: rgb(0, 0, 0); fill-opacity: 0;"/><text class="annotation-text" text-anchor="start" x="2" y="12" style="font-family: 'Helvetica Neue', Helvetica, Arial, sans-serif; font-size: 14px; fill: rgb(89, 89, 89); fill-opacity: 1; white-space: pre;"><tspan class="line" dy="0em" x="2" y="12"><tspan style="font-size:11px">Source : Banque mondiale (fécondité, FBCF) ; SIPRI via Banque mondiale (défense). Extraction : 06/2026.</tspan></tspan><tspan class="line" dy="1.3em" x="2" y="12"><tspan style="font-size:11px">Lecture : les économies avancées combinent une fécondité bien sous le seuil de remplacement, un investissement modéré et (en Europe) un faible effort de défense ; la Chine surinvestit mais voit sa fécondité s'effondrer.</tspan></tspan></text></g></g></g></g></svg>